<?xml version="1.0" encoding="utf-8"?>
<!-- Generator: Adobe Illustrator 24.3.0, SVG Export Plug-In . SVG Version: 6.00 Build 0)  -->
<svg version="1.0" id="Layer_1" xmlns="http://www.w3.org/2000/svg" xmlns:xlink="http://www.w3.org/1999/xlink" x="0px" y="0px"
	 viewBox="0 0 2918.54 2918.54" style="enable-background:new 0 0 2918.54 2918.54;" xml:space="preserve">
<style type="text/css">
	.st0{fill:url(#SVGID_1_);}
	.st1{fill-rule:evenodd;clip-rule:evenodd;fill:#00FFFF;}
	.st2{fill:#CAB3DA;}
	.st3{fill-rule:evenodd;clip-rule:evenodd;fill:#CAB3DA;}
	.st4{fill-rule:evenodd;clip-rule:evenodd;fill:url(#SVGID_2_);}
	.st5{fill-rule:evenodd;clip-rule:evenodd;fill:#684D73;}
	.st6{fill-rule:evenodd;clip-rule:evenodd;fill:#53345F;}
	.st7{fill-rule:evenodd;clip-rule:evenodd;fill:#FF6B22;}
	.st8{fill:#FF6B22;}
	.st9{fill-rule:evenodd;clip-rule:evenodd;fill:url(#SVGID_3_);}
	.st10{fill-rule:evenodd;clip-rule:evenodd;fill:url(#SVGID_4_);}
	.st11{fill-rule:evenodd;clip-rule:evenodd;fill:url(#SVGID_5_);}
	.st12{fill-rule:evenodd;clip-rule:evenodd;fill:url(#SVGID_6_);}
	.st13{fill:#53345F;}
	.st14{fill-rule:evenodd;clip-rule:evenodd;fill:url(#SVGID_7_);}
	.st15{opacity:0.5;fill-rule:evenodd;clip-rule:evenodd;fill:#53345F;}
	.st16{fill-rule:evenodd;clip-rule:evenodd;fill:url(#SVGID_8_);}
	.st17{fill-rule:evenodd;clip-rule:evenodd;fill:url(#SVGID_9_);}
	.st18{fill-rule:evenodd;clip-rule:evenodd;fill:url(#SVGID_10_);}
	.st19{fill-rule:evenodd;clip-rule:evenodd;fill:url(#SVGID_11_);}
	.st20{fill:#FFFFFF;}
	.st21{fill:url(#SVGID_12_);}
	.st22{fill:url(#SVGID_13_);}
	.st23{fill:url(#SVGID_14_);}
	.st24{fill:#AEFFFF;}
	.st25{fill:#CC5268;}
	.st26{fill:url(#SVGID_15_);}
	.st27{opacity:0.6;fill:url(#SVGID_16_);}
	.st28{fill:url(#SVGID_17_);}
	.st29{fill:url(#SVGID_18_);}
	.st30{fill:url(#SVGID_19_);}
	.st31{fill:#6D3A51;}
	.st32{fill:#F58E6F;}
	.st33{fill:url(#SVGID_20_);}
	.st34{fill-rule:evenodd;clip-rule:evenodd;fill:#DD6668;}
	.st35{fill:url(#SVGID_21_);}
	.st36{clip-path:url(#SVGID_23_);fill:url(#SVGID_24_);}
	.st37{clip-path:url(#SVGID_23_);fill:#402F40;}
	.st38{clip-path:url(#SVGID_26_);fill:url(#SVGID_27_);}
	.st39{clip-path:url(#SVGID_26_);fill:#402F40;}
	.st40{fill-rule:evenodd;clip-rule:evenodd;fill:#CC5268;}
	.st41{fill-rule:evenodd;clip-rule:evenodd;fill:#A13751;}
	.st42{fill:#8B2E45;}
	.st43{fill:#FFEBED;}
	.st44{opacity:0.6;fill:url(#SVGID_28_);}
	.st45{fill:url(#SVGID_29_);}
	.st46{fill:url(#SVGID_30_);}
	.st47{opacity:0.91;fill:url(#SVGID_31_);}
	.st48{opacity:0.91;fill:url(#SVGID_32_);}
	.st49{opacity:0.91;fill:url(#SVGID_33_);}
	.st50{fill:url(#SVGID_34_);}
	.st51{opacity:0.6;fill-rule:evenodd;clip-rule:evenodd;fill:url(#SVGID_35_);}
	.st52{fill:#FFBBA6;}
	.st53{fill:url(#SVGID_36_);}
	.st54{fill-rule:evenodd;clip-rule:evenodd;fill:url(#SVGID_37_);}
	.st55{opacity:0.3;fill:url(#SVGID_38_);}
	.st56{fill:url(#SVGID_39_);}
	.st57{fill-rule:evenodd;clip-rule:evenodd;fill:url(#SVGID_40_);}
	.st58{fill-rule:evenodd;clip-rule:evenodd;fill:url(#SVGID_41_);}
	.st59{fill:url(#SVGID_42_);}
	.st60{fill:url(#SVGID_43_);}
	.st61{fill:url(#SVGID_44_);}
	.st62{fill-rule:evenodd;clip-rule:evenodd;fill:url(#SVGID_45_);}
	.st63{fill-rule:evenodd;clip-rule:evenodd;fill:url(#SVGID_46_);}
	.st64{opacity:0.4;fill-rule:evenodd;clip-rule:evenodd;fill:#00FFFF;}
	.st65{fill-rule:evenodd;clip-rule:evenodd;fill:url(#SVGID_47_);}
	.st66{fill-rule:evenodd;clip-rule:evenodd;fill:url(#SVGID_48_);}
	.st67{fill-rule:evenodd;clip-rule:evenodd;fill:#FFFFFF;}
	.st68{fill-rule:evenodd;clip-rule:evenodd;fill:none;}
</style>
<g>
	<linearGradient id="SVGID_1_" gradientUnits="userSpaceOnUse" x1="1735.8604" y1="2663.1611" x2="1735.8604" y2="83.3732">
		<stop  offset="0" style="stop-color:#000000"/>
		<stop  offset="0.01" style="stop-color:#000505"/>
		<stop  offset="0.314" style="stop-color:#008A8A"/>
		<stop  offset="0.5212" style="stop-color:#00DEDE"/>
		<stop  offset="0.615" style="stop-color:#00FFFF"/>
	</linearGradient>
	<path class="st0" d="M1286.51,2663.16l0.01-15.61c0.05-60,36.12-92.36,59.78-107.13c-31.11-12.35-55.27-28.48-71.04-40.83
		c-21.61-16.91-32.82-30.69-32.92-30.83l-1.99-2.5v-6.53l2.13-2.59c1.65-2.08,10.24-12.03,29.6-21.71
		c-63.09-68.41-98.19-126.63-104.37-173.15c-7.83-58.76,21.13-169.28,46.69-266.79c11.24-42.88,21.86-83.39,27.8-114
		c1.09-5.58,2.12-10.8,3.11-15.66l5.11-93.5c-3.33-167.13,40.51-318.46,46.16-337.23c-0.76-6.29-1.43-12.4-2.08-18.45l-0.15-1.37
		c-0.59-6.03-1.12-12.06-1.58-18.18c-31.57,34.01-75.67,70.63-126.37,82.15l-0.95,0.48l-1.21,0.01c-4.27,0.9-8.54,1.61-13.04,2.17
		c-4.71,0.51-10.74,0.98-16.73,1.02c-16.93,0.03-36.25-2.74-57.02-8.35c-19.08-3.83-40.74-12.86-55.56-19.78
		c-16.05-7.47-27.57-13.99-28.06-14.26c-25.88-13.69-52.5-30.74-76.97-49.31h-0.54l-3.09-2.79
		c-60.5-46.72-101.25-96.94-112.91-138.85c-12.87-4-28.94-14.98-29.86-44.79c-12.75-7.32-25.55-15.92-37.27-25.08
		c-29.7-23.05-68.9-62.31-86.86-118.33c-13.67-42.6-14.61-73.52-2.8-91.91c8.32-12.96,19.86-14.68,21.14-14.84l0.92-0.11l0.92,0.07
		c55.85,4.57,83.6,20.11,96.16,30.4l12.14-17.61l7.75,7.04c17.52,15.9,34.32,43.05,45.56,65.62c9.71-8.78,19.24-13.21,28.6-13.13
		c11.66,0.13,22.86,7.1,39.8,17.65c19.48,12.14,46.16,28.76,89.26,45.57c77.86,30.37,239.09,20.48,285.31,2.77
		c2.08-0.8,4.21-1.58,6.36-2.35c-6.16-1.39-12.21-2.84-18.14-4.33c-85.33-21.28-171.69-65.96-236.98-122.61
		c-3.16-2.46-5.08-4.29-5.8-5c-30.98-27.65-54.48-56.78-66.18-82.04c-0.46-0.92-0.92-2.04-1.37-3.17c-0.26-0.66-0.52-1.33-0.86-2
		l-0.34-0.77c-48.68-124.85-88.01-501.78,103.57-693.73c4.14-4.23,8.25-7.83,12.49-10.95l6.03-4.55
		c15.11-10.87,34.24-20.94,57.02-30.04c32.26-12.98,70.29-23.67,113.04-31.76c148.85-27.91,319.43-19.39,434.58,21.71
		c7.1,2.55,14.36,5.38,22.2,8.66l1,0.33c133.69,46.43,235.11,148.54,301.55,303.52c8.48,19.72,16.38,40.44,23.49,61.56l0.15,0.44
		c0.27,0.77,0.53,1.52,0.77,2.31c0.98,2.83,1.99,5.93,2.97,8.97l2.32,7.23c0.44,1.39,0.87,2.76,1.28,4.11l1.01,1.11l0.02,2.25
		c1.6,5.15,3.13,10.13,4.46,14.79c2.63,8.85,4.43,19.63,5.35,31.97c1.72,15.22,1.07,35.52-1.95,60
		c-8.79,76.24-38.07,166.17-78.34,240.52c-1.23,2.52-2.8,5.36-4.48,8.13c-39.52,70.58-87.16,123.07-137.62,151.51
		c-38.17,21.5-82.25,38.23-131.41,49.91c8.09,4.84,17.11,11.23,24.48,19c0.77,0.81,2.74,2.63,7.62,6.23h6.18l0.02,4.39
		c2.19,1.5,4.58,3.1,7.12,4.77c2.04,1.21,21.01,12.49,43.42,25.63c20.9,12.22,50.53,29.46,66.47,38.02
		c7.72,4.06,15.59,8.11,23.42,12.04l1.1-0.4l65.96,31.5c8.7,3.63,16.27,6.6,23.12,9.1c65.55,24.16,119.91,21.26,155.88,19.34
		c10.66-0.57,20.04-1.07,27.84-0.77c0.39-0.19,0.63-0.28,0.78-0.34l7.97-3.13l2.21,4.68c24.49,4.99,36.53,24.31,41.05,33.75
		l12.67,2.34c10.86-17.26,25.45-30.08,43.45-38.14l10.29-4.61l5.45,24.91c23.45-15.9,77.57-44.57,128.38-13.33l4.71,2.9l-0.36,5.51
		c-0.12,1.86-3.42,45.96-39.51,90.16c-13.21,18.28-32.68,34.55-57.88,48.37c-13.04,7.46-27.41,13.97-42.72,19.34
		c-1.88,32.39-26.95,49.89-35.28,54.84l-0.62,1.06c-0.12,0.2-0.28,0.43-0.42,0.73l-0.64,1.21c-0.36,0.57-0.78,1.26-1.2,2.01
		c-9.55,15.71-35.8,54.19-81.39,87.35l0.6,1.85l-8.13,3.49c-34.62,23.58-72.99,39.11-114.07,46.19
		c-25.73,4.41-52.56,3.13-79.75-3.81l-0.5-0.1c-0.51-0.11-4.42-0.96-10.62-2.78l-40.3-10.47c11.47,20.86,17.42,29.37,17.5,29.49
		l0.62,1.01c0,0,14.35,27.15,36.46,69.02c102.02-5.52,224.68-37.89,364.71-96.25c274.88-114.53,443.39,4.21,504.18,140.7l0,0
		c59.56,133.69,30.43,322.33-120.47,393.98c-26.53,12.55-52.9,21.74-78.39,27.32c-22.38,4.92-43.95,7.17-64.79,7.17
		c-109.83,0.01-199.88-62.3-287.44-122.87c-45.3-31.32-92.14-63.71-140.07-85.62c-16.32-7.45-33.09-13.72-50.06-18.73
		c54.98,107.59,88.32,176.16,99.17,203.96c10.65,24.84,11.09,69.08,11.11,73.51c1.2,19.37,2.12,41.9,2.71,66.97
		c0.11,4.01,0.2,8.01,0.29,12c1.12,0.11,1.78,0.2,1.94,0.22l7.92,1.08v8l-2.99,0.02l3.03,0.01l-0.08,9.16l-1.06,126.58
		c101.68,62.75,109.35,159.06,109.63,163.19l0.67,9.78h-8.89c-8.8,2.1-17.47,3.06-25.95,3.06
		c-86.21,0.01-153.92-99.34-162.75-112.89c-0.51-0.7-0.79-1.16-0.79-1.16l-0.76-1.27l-0.38-1.55l-4.95-22.44l-106.69-45.36
		c-10.06-3.35-15.77-6.6-16.39-6.96l-8.23-4.79l5.11-8.04c1.38-2.18,2.84-4.41,4.4-6.72c-32.12-20.01-64.21-43.45-89.17-65.17
		c-4.56-3.72-9.83-8.52-15.43-14.08c-7.68-7.41-14.3-14.48-19.58-20.93c-16.76-19.01-31.51-38.23-37.07-45.6l-0.18-0.23
		c-18.39-22.05-43.14-51.27-71.9-84.9l-12.19-0.46v-8.82c0-0.5,0.1-2.27,0.28-4.63c-34.95-40.8-66.26-76.95-75.44-87.54l-1.9,0
		l-69.19-0.74l-4.33,10.64c-6.82,17.45-13.4,37.1-19.52,58.32v9.3h-2.66c-4.26,15.36-8.43,31.84-12.42,49.09l-15.71,76.85
		c-8.27,45.48-15.56,94.79-21.68,146.53c0.05,0.01,0.1,0.02,0.16,0.04h9.24l-0.27,2.13l7.03,1.67l-8.41,9.25l-7.55,59.66
		l13.09,30.91L1286.51,2663.16z M1262.18,2463.38c4.91,5.09,13.09,12.95,24.38,21.78c17.85,13.98,47.18,33.13,85.56,44.93
		l26.87,8.27l-26.59,9.15c-2.53,0.88-58.09,21.08-66.5,83.85l188.4-105.05l-8.6-20.32l6.37-50.31l-35.31,17.65l28.29-28.29
		l-0.84-0.19l0.94-8.13c6.35-55.1,14.04-107.61,22.85-156.06l15.8-77.27c4.7-20.3,9.58-39.35,14.57-56.86l1.96-6.65
		c5.95-20.25,12.31-39.09,18.96-56.08l5.55-13.6c0.44-1.07,0.88-2.13,1.33-3.16l2.43-5.56l72.16,0.77v-0.01l24.33,0.23v5.66
		c7.79,8.99,34.93,40.31,66.64,77.27v-0.01l14.47,16.89c31.78,37.11,59.1,69.34,78.99,93.18l-0.01,0.01
		c0.18,0.21,0.39,0.47,0.62,0.77c5.43,7.2,19.84,25.99,36.39,44.77c5.05,6.14,11.18,12.69,18.44,19.7
		c5.27,5.24,10.09,9.63,14.42,13.17c26.58,23.13,61.18,48.06,95.15,68.6l8.45,5.11l-5.72,8.05c-1.26,1.77-2.45,3.48-3.59,5.14
		c1.31,0.49,2.75,1.01,4.31,1.52l0.72,0.27l115.72,49.2l6.61,29.94c6.52,9.88,78.86,116.2,161.93,103.02
		c-4.23-23.76-23.37-95.77-104.1-143.48l-4.54-2.69l1.15-137.6c-0.24-0.01-0.5-0.02-0.75-0.02l-8.7-0.26l-0.21-9.58
		c-0.14-6.44-0.28-12.94-0.45-19.45c-0.59-25.02-1.5-47.4-2.7-66.6l-0.02-0.57c0-0.44-0.11-44.4-9.74-66.87
		c-11.33-29.04-47.59-103.24-107.89-220.83l-9.05-17.64l19.3,4.54c24.83,5.85,49.43,14.3,73.1,25.1
		c49.41,22.59,96.93,55.44,142.88,87.22c85.16,58.91,172.77,119.51,277.66,119.51c19.45,0,39.48-2.08,60.22-6.65
		c24.14-5.29,49.19-14.03,74.46-25.98c140.91-66.9,167.64-244.13,111.59-369.96h0c-57.44-128.95-217.72-240.7-480.39-131.24
		c-144.67,60.3-271.42,93.25-376.73,97.93l-5.8,0.26l-2.71-5.14c-21.87-41.43-36.8-69.69-38.92-73.69
		c-2.31-3.37-15.01-22.51-37.82-68.27l-15.02-30.13l28.22,18.36c1.49,0.97,2.96,1.89,4.44,2.82l1.13,0.77
		c29.83,21.57,64.17,30.46,70.55,31.98h8.26l0.01,1.95c22.61,5.01,44.81,5.71,66.1,2.07c37.92-6.53,73.38-20.76,105.45-42.32
		l3.25-2.25c46.16-32,72.43-70.44,81.58-85.49c0.34-0.63,0.8-1.39,1.23-2.08c0.43-0.88,0.86-1.61,1.25-2.23l2.91-5.15l2.53-1.26
		c1.16-0.59,29.21-15.25,27.82-46.08l-0.32-6.97l6.64-2.16c16.47-5.35,31.85-12.09,45.71-20.02c23.03-12.63,40.52-27.18,52.12-43.32
		l0.35-0.46c25.27-30.85,32.76-62.05,34.84-74.44c-53.36-27.44-113.02,22.86-113.63,23.39l-11.63,9.98l-6.77-30.93
		c-11.94,7.58-21.63,18.28-28.91,31.94l-8.65,16.23l-6.57-14.15l-22.86-4.23l-1.71-5.12c-0.33-0.96-8.79-24.67-33.08-27.37
		l-2.21-0.18c-7.2-0.49-17.03,0.04-28.39,0.64c-37.46,2-94.09,5.03-163.16-20.43c-7.14-2.61-15.03-5.71-24.07-9.48l-0.42-0.19
		l-59.23-28.28l-1.28,0.46l-3.51-1.75c-9.1-4.53-18.31-9.25-27.38-14.03c-16.27-8.73-46.1-26.09-67.13-38.39
		c-23.79-13.95-43.71-25.8-43.71-25.8l-0.35-0.22c-3.39-2.23-6.51-4.33-9.29-6.26h-0.05l-1.66-1.19c-0.22-0.15-0.44-0.31-0.65-0.46
		l-3.87-2.83c-4.08-3.06-6.92-5.47-8.81-7.47c-12.54-13.22-31.7-22.07-37.53-24.57l-9.95,0.41l-2-18.17
		c61.39-11.12,115.46-29.67,160.71-55.15c47.52-26.79,92.74-76.85,130.79-144.78c1.57-2.59,2.87-4.96,4.03-7.3
		c39.37-72.71,67.88-160.18,76.42-234.28c2.85-23.13,3.49-41.99,1.9-56.13c-0.85-11.38-2.42-20.87-4.7-28.54
		c-1.28-4.46-2.71-9.14-4.22-13.98l-0.04-0.13c-0.17-0.54-0.34-1.09-0.51-1.64l-0.42-1.38c-0.48-1.56-0.98-3.15-1.49-4.76
		l-2.25-7.03c-0.96-3-1.93-5.98-2.97-8.99c-0.27-0.86-0.45-1.37-0.64-1.9l-0.2-0.58c-6.98-20.74-14.71-40.99-23-60.26
		c-64.33-150.06-162.1-248.78-290.62-293.41l-1.85-0.64c-7.68-3.21-14.75-5.97-21.62-8.44c-112.3-40.07-279.14-48.3-425.01-20.95
		c-41.55,7.87-78.44,18.22-109.61,30.76c-21.43,8.55-39.24,17.9-52.97,27.78l-5.96,4.5c-3.53,2.59-6.9,5.56-10.41,9.14
		C963.95,290.44,934.72,440.12,927.88,547.98c-8.32,131.18,12.48,252.97,36.83,315.68c0.49,1.01,0.89,2.01,1.29,3.01
		c0.26,0.66,0.52,1.33,0.86,2c10.82,23.33,32.82,50.41,62.07,76.49l0.52,0.49l0,0c0,0,1.44,1.45,4.32,3.69l0.39,0.32
		c63.2,54.88,146.88,98.2,229.6,118.83c16.9,4.25,34.84,8.11,53.33,11.46l42.87,7.77l-42.37,10.16
		c-14.45,3.46-27.89,7.56-39.94,12.18c-49.66,19.03-215.59,29.55-298.52-2.81c-44.68-17.43-73.33-35.28-92.29-47.09
		c-13.81-8.6-23.78-14.82-30.27-14.88c-0.02,0-0.04,0-0.06,0c-6.33,0-15.08,6.07-23.97,16.67l-9.46,11.26l-5.94-13.45
		c-11.03-24.96-25.85-48.91-39.48-64.18l-13.84,20.07l-7.49-11.25c-0.09-0.12-18.96-25.28-89.96-31.39
		c-1.27,0.44-4.84,2.05-7.82,7.04c-4.63,7.78-10.11,27.97,5.23,75.77c16.54,51.56,53,87.99,80.68,109.47
		c15.71,12.28,30.19,20.99,39.58,26.14l4.92,2.7l-0.17,5.61c-0.8,26.04,10.66,31.47,20.73,33.29l7.53,1.36v6.66
		c8.89,38.21,49.04,87.88,107.67,133.11l0.79,0.62c24.35,18.7,51.03,35.89,77.14,49.71c0.34,0.19,11.65,6.58,27,13.72
		c13.73,6.4,33.57,14.72,50.71,18.27h0.3l1.21,0.32c19.33,5.25,37.1,7.8,52.65,7.82c5.16-0.02,10.27-0.43,14.6-0.9
		c3.75-0.47,7.44-1.08,11.11-1.85l0.92-0.46l1.17-0.01c54.27-12.3,101.3-57.21,131.26-92.84l15.03-17.87l1.13,23.33
		c0.66,13.71,1.6,26.6,2.86,39.38l0.14,1.27c0.71,6.58,1.44,13.24,2.29,20.12l0.24,1.98l-0.6,1.9
		c-0.49,1.57-49.42,158.79-45.91,333.29l0,0.8l-0.01,0.25l-5.34,95.82c-1.02,5-2.08,10.4-3.21,16.16
		c-6.05,31.17-16.74,71.95-28.06,115.13c-25.13,95.87-53.6,204.53-46.25,259.73c5.85,44.12,43.31,103.74,108.33,172.41l9.32,9.85
		l-12.62,4.97C1276.5,2452.78,1267.35,2459.06,1262.18,2463.38z M1881.42,1596.57h3.67c-1.68-0.83-3.36-1.7-5.06-2.59
		C1880.5,1594.86,1880.96,1595.72,1881.42,1596.57z M2543.92,2139.24c-99.01,0-181.67-57.17-267.74-116.7l-0.54-0.38
		c-46.37-32.05-94.32-65.19-144.83-88.25c-33.67-15.37-68.63-26.12-103.9-31.95l-4.53-0.75l-2.11-4.09
		c-14.69-28.47-29.42-56.82-43.45-83.75l-4.1-7.87c-10.55-20.21-20.65-39.52-29.98-57.32l-6.52-12.43l14-0.97
		c104.25-7.19,227.56-40.18,366.51-98.05c251.56-104.83,402.14-5.31,459.17,122.78c52.94,118.84,28.37,285.91-103.65,348.57h0
		C2625.99,2130.04,2583.64,2139.24,2543.92,2139.24z M2034.45,1884.66c35.32,6.25,70.28,17.2,103.97,32.58
		c51.99,23.74,100.62,57.35,147.64,89.85l0.55,0.38c116.12,80.31,225.79,156.17,377.78,84.07h0
		c122.04-57.92,144.21-213.57,94.77-324.56c-53.52-120.2-196-213.07-435.39-113.32c-134.69,56.1-255.15,89.15-358.37,98.32
		c8.43,16.1,17.4,33.26,26.68,51.05l4.81,6.66l-0.85,0.94C2008.51,1834.57,2021.48,1859.55,2034.45,1884.66z"/>
</g>
<path class="st1" d="M1844.68,1568.6c-2.25-4.6-4.69-9.52-7.3-14.63c-11.64-23.64-25.46-53.19-41.35-89.76
	c-34.89-79.91-93.91-210.34-134.63-299.99l-0.03-0.11c-12.26-26.93-22.85-50.21-30.71-67.32c-2.91-6.47-5.54-12.18-7.65-16.69
	c-4.16-9.28-6.51-14.33-6.51-14.33s-178.05,56.2-265.56,14.44c0,0-1.92,2.78-5.16,8.32c-0.45,0.69-0.79,1.35-1.24,2.04
	c-16.59,29.11-59.37,118.95-55.66,266.46c0.48,18.23,1.62,37.26,3.59,57.3c0.74,7.05,1.51,14.22,2.45,21.59
	c0,0-49.93,158.08-46.34,336.24c0,0.12,0.01,0.24,0.01,0.36l0-0.01l-5.17,94.5c-1.01,5.03-2.09,10.42-3.23,16.22
	c-19.23,99.09-85.44,295.05-74.39,377.83c7.52,56.59,60.54,124.49,110.75,177.5c-27.71,10.95-37.86,24.23-38.03,24.45
	c-0.01,0-0.03-0.01-0.04-0.01c0,0,0.02,0.03,0.03,0.03l0,0c0,0,0,0,0,0c0.6,0.72,43.19,52.23,119.91,75.81
	c0,0-73.66,25.37-73.72,108.72l200.44-117.24l-11.12-25.64l8.4-64.84c0,0-0.06,0.02-0.14,0.05c0.05-0.05,0.08-0.08,0.08-0.08
	c-3.14-0.74-6.13-1.37-9.19-2.04c10.56-89.65,33.89-247.17,75.42-350.65l4.56-10.97c0.8-1.85,1.58-3.72,2.39-5.53l83.38,0.9
	c0,0,0.06-0.25,0.08-0.73c0.04-0.36,0.08-0.73,0.18-1.34c0.04-0.36,0.08-0.73,0.21-1.23c0.01-0.48,0.14-0.98,0.25-1.59
	c5.71-35.41,48.63-256.79,243.47-430.37C1883.11,1636.28,1870.1,1618.38,1844.68,1568.6z"/>
<path class="st1" d="M644.03,1058.6c16.76,52.24,52.66,89.76,83.78,113.94c29.88,23.33,55.32,34.24,55.32,34.24
	s36.87-36.4,39.06-90.43c0,0,4.69-26.57,0-40.68c-10.4-31.12-34.6-74.29-56.8-94.42l-12.46,18.08c0,0-19.37-29.12-98.19-35.55
	C654.75,963.78,615.11,968.5,644.03,1058.6z"/>
<path class="st1" d="M1479.77,1000.91c11.42-45.54,34.5-81.43,64.17-116.71c33.63-39.99,80.88-68.78,127.76-90.94
	c28.57-13.51,58.48-25.38,85.66-41.71c0.85-0.89,1.71-1.76,2.54-2.67c11.22-16.77,21.06-34.42,29.79-52.63
	c4.02-11.1,7.57-22.35,10.53-33.76c-12.32-13.02-24.29-26.43-34.5-43.18c-18.37-30.14-28.8-71.33-29.55-106.64
	c-0.09-4.33,0.11-8.64,0.39-12.94c-6.25-12.91-11.97-26.02-15.79-39.78c-15.72,34.34-46.03,96.5-64.75,200.15
	c-4.63,25.49-8.58,53.37-11.42,84.06l-46.66,1.7c0,0-57.44,202.92-299.06,227.4c-196.45,19.72-298.99-83.1-327.68-121.1
	c-0.86-1.67-1.4-3.42-2.06-4.97c-27.45-70.03-49.77-217.94-28.72-363.59c14.94-103.19,51.46-205.31,123.78-277.99
	c3.3-3.12,6.73-6.44,10.73-9.38l5.85-4.38c13.93-9.93,31.2-18.93,51.48-27.07c29.72-11.97,65.18-21.84,104.35-29.15
	c78.33-9.19,186.46-6.09,294.5,46.77c106.27,52.04,159.51,131.83,183.3,187.95c1.95-15.82,5.66-31.36,11.43-46.14
	c18.16-46.54,36.86-73.85,67.87-112.94c0.87-1.1,1.77-2.16,2.65-3.25c-38.05-31.92-82.92-59.18-135.94-78.07
	c-123.55-44.09-295.92-46.45-429.78-21.33c-41.85,7.92-79.65,18.48-111.35,31.24c-21.5,8.59-40.13,18.22-54.9,28.86l-6.13,4.61
	c-4.29,3.17-8.03,6.57-11.42,10.05C860.99,369.64,895.6,739.88,945.32,867.35c0.89,1.84,1.43,3.58,2.32,5.42
	c11.11,23.98,33.49,51.86,64.2,79.22c0,0,1.72,1.82,5.29,4.58c57.4,49.86,141.56,97.92,233.41,120.82
	c65.17,16.34,145.01,27.2,227.18,26.74C1470.37,1070.4,1471.25,1034.91,1479.77,1000.91z"/>
<path class="st1" d="M794.76,1232.5c21.44,97.39,212.08,240.84,328.76,241.18c5.22,0.07,10.45-0.34,15.54-0.86
	c71.22-8.47,131.08-73.93,163.9-118.28c17.44-23.38,27.3-40.94,27.3-40.94l33.6-234.22c0,0-3.04,0.18-8.35,0.74
	c-16.4,1.78-54.63,7.02-92.15,21.38c-49.52,18.96-212.21,28.27-291.9-2.8c-79.69-31.07-105.62-62.37-125.77-62.58
	c-20.26-0.18-40.05,31.9-40.05,31.9S772.14,1129.75,794.76,1232.5z"/>
<g>
	<path class="st2" d="M2595.76,2157.81c24.45-5.37,49.85-14.07,76.42-26.67c145.89-69.25,173.8-252.2,116.01-381.97
		c-59.1-132.71-223.49-247.96-492.26-135.97c-471.19,196.37-593.99,36.69-595.17,35.04l-28.06,20.34
		c5.5,7.58,140.35,183.33,636.55-23.39c245.47-102.27,392-6.06,447.28,118.07c51.18,114.92,27.8,276.27-99.21,336.57
		c-156.74,74.37-268.54-2.93-386.92-84.8c-46.87-32.41-95.34-65.95-146.79-89.43c-183.07-83.6-334.22-3.86-340.56-0.42l16.47,30.48
		c1.42-0.77,142.85-74.73,309.7,1.45c48.66,22.23,95.84,54.86,141.47,86.42C2353.53,2114.65,2459.36,2187.82,2595.76,2157.81z"/>
</g>
<path class="st3" d="M1841.29,2354.12c0,0,66.28,105.23,144.92,85.52L1841.29,2354.12z"/>
<radialGradient id="SVGID_2_" cx="4666.1313" cy="816.6461" r="267.4773" gradientTransform="matrix(-0.9766 0.215 0.215 0.9766 5479.0322 -561.406)" gradientUnits="userSpaceOnUse">
	<stop  offset="0" style="stop-color:#F4DBEE"/>
	<stop  offset="1" style="stop-color:#D1BDE5"/>
</radialGradient>
<path class="st4" d="M796.87,1242.1c20.76,94.3,210.16,232.13,326.67,231.68c5.21,0.04,10.44-0.4,15.52-0.93
	c71.17-8.69,131.39-72.56,164.44-115.79c17.57-22.79,27.53-39.88,27.53-39.88l35.11-227.35c0,0-3.03,0.19-8.34,0.77
	c-16.39,1.83-54.6,7.17-92.16,21.35c-49.57,18.72-212.09,28.83-291.45-0.77c-79.37-29.6-105.05-59.78-125.17-59.85
	c-20.23-0.04-40.2,31.2-40.2,31.2S774.97,1142.61,796.87,1242.1z"/>
<path class="st5" d="M808.81,1082.56c0,0,36.33-8,47.09,15.41c10.75,23.4,10.96,156.68-59.04,144.08
	C726.86,1229.45,808.81,1082.56,808.81,1082.56L808.81,1082.56z"/>
<path class="st6" d="M825.64,1092.86c0,0,1.3,71.5-46.95,125.18C778.69,1218.04,756.44,1127.14,825.64,1092.86z"/>
<path class="st7" d="M662.11,1064.42c15.61,49.43,48.31,85.16,76.58,108.27c27.14,22.29,50.16,32.84,50.16,32.84
	s32.85-33.96,34.3-84.9c0,0-2.46-9.04-6.82-22.39c-9.68-29.45-28.34-79.86-48.53-99.07l-6.07,32.08c0,0-19.84-49.33-90.89-56.16
	C670.83,975.1,635.18,979.16,662.11,1064.42z"/>
<path class="st8" d="M1063.44,1127.95c0,0,32.67,63.69,20.34,185.84c-12.33,122.15-96.46,118.83-96.46,118.83
	s46.1,26.09,81.08,33.04c0,0,203.91-21.53,72.34-336.24L1063.44,1127.95z"/>
<linearGradient id="SVGID_3_" gradientUnits="userSpaceOnUse" x1="4358.6094" y1="889.5934" x2="4675.9009" y2="889.5934" gradientTransform="matrix(-0.9766 0.215 0.215 0.9766 5479.0322 -561.406)">
	<stop  offset="0" style="stop-color:#9579A7"/>
	<stop  offset="1" style="stop-color:#FFFFFF"/>
</linearGradient>
<path class="st9" d="M1303.51,1357.06c0.47,18.23,1.58,37.26,3.51,57.3l86.92-114.45l-14.21-209.63l-20.72-1.71
	c-0.44,0.69-0.77,1.35-1.21,2.04c-16.39,1.83-54.6,7.17-92.16,21.35c0,0,132.12,171.49-126.38,360.73c-0.11,0.02-0.11,0.02-0.2,0.16
	C1210.24,1464.16,1270.45,1400.29,1303.51,1357.06z"/>
<path class="st6" d="M1165.37,2320.18c0,0,40.19-54.98,190.77-18.63C1356.13,2301.55,1285.94,2367.93,1165.37,2320.18z"/>
<path class="st6" d="M2169.31,2312.44c0,0-122.46-17.11-204.56,112.25c0,0,50.11,29.31,121.97-0.52
	C2158.58,2394.35,2169.31,2312.44,2169.31,2312.44z"/>
<radialGradient id="SVGID_4_" cx="4785.5122" cy="1746.4978" r="285.1499" gradientTransform="matrix(-0.9766 0.215 0.215 0.9766 5479.0322 -561.406)" gradientUnits="userSpaceOnUse">
	<stop  offset="0" style="stop-color:#F4F1FF"/>
	<stop  offset="1" style="stop-color:#D1BDE5"/>
</radialGradient>
<path class="st10" d="M1383.28,2526.85l93.06-20.48c0,0,1.78-23.1,5.92-59.61c10.3-92.38,35.12-270.28,81.36-376.13l-0.03-0.11
	l-296.51-242.93c0,0-4.48,21.56-11.05,55.65c-18.75,99.09-83.33,295.05-72.56,377.83
	C1197.87,2372.14,1383.28,2526.85,1383.28,2526.85z"/>
<path class="st3" d="M1267.08,1827.58c0,0,88.76,162,281.35,242.84l15.18,0.21l81.33,0.9c0,0,0.06-0.25,0.08-0.73
	c0.04-0.36,0.08-0.73,0.18-1.34c0.04-0.36,0.08-0.73,0.2-1.23c0.01-0.48,0.14-0.98,0.24-1.59c5.57-35.41,47.43-256.79,237.47-430.37
	c0,0-12.69-17.9-37.48-67.67c-2.2-4.6-4.58-9.52-7.12-14.63c-11.35-23.64-24.84-53.19-40.33-89.76
	c-34.03-79.91-91.59-210.34-131.31-299.99l-0.03-0.11c-11.96-26.93-22.29-50.21-29.96-67.32c-2.84-6.47-5.4-12.18-7.46-16.69
	c-4.05-9.28-6.35-14.33-6.35-14.33s-173.66,56.2-259.01,14.44c0,0-1.87,2.78-5.03,8.32c-0.44,0.69-0.77,1.35-1.21,2.04
	c-16.18,29.11-57.9,118.95-54.29,266.46c0.46,18.23,1.58,37.26,3.51,57.3c0.72,7.05,1.47,14.22,2.39,21.59
	c0,0-48.7,158.08-45.2,336.24C1264.6,1790.52,1265.48,1809.01,1267.08,1827.58z"/>
<radialGradient id="SVGID_5_" cx="3874.6956" cy="1073.6266" r="291.9766" gradientTransform="matrix(-0.9766 0.215 0.215 0.9766 5479.0322 -561.406)" gradientUnits="userSpaceOnUse">
	<stop  offset="0" style="stop-color:#F4DBEE"/>
	<stop  offset="1" style="stop-color:#D1BDE5"/>
</radialGradient>
<path class="st11" d="M1643.97,1305.89c0.02,0.11,0.02,0.11,0.05,0.23c2.33,5.76,4.91,11.57,7.54,17.62
	c41.47,94.35,112.52,190.95,194.05,244.91c49.98,33.11,103.76,50.13,157.09,40.99c119.07-20.53,180.65-108.24,196.55-134.33
	c0.5-0.94,1.03-1.76,1.47-2.45c0.39-0.91,0.83-1.6,1.18-2.15c1.03-1.76,1.53-2.7,1.53-2.7s40.39-20.12,31.77-64.11
	c-8.53-44.13-38.58-109.18-38.58-109.18l-22.19-4.1c0,0-10.07-30.19-40.75-33.61c-30.76-3.28-100.23,14.25-191.61-19.44
	c-80.29-29.51-197.77-96.85-236.61-124.49c-5.47-3.88-9.33-6.93-11.34-9.09c-16.47-17.31-42.6-27.52-42.6-27.52l-13.35,2.23
	l-8.78,1.46l-27.03,4.53C1602.37,1084.66,1577.58,1146.65,1643.97,1305.89z"/>
<radialGradient id="SVGID_6_" cx="4074.1887" cy="1798.0656" r="343.7994" gradientTransform="matrix(-0.9766 0.215 0.215 0.9766 5479.0322 -561.406)" gradientUnits="userSpaceOnUse">
	<stop  offset="0" style="stop-color:#F4F1FF"/>
	<stop  offset="1" style="stop-color:#D1BDE5"/>
</radialGradient>
<path class="st12" d="M1644.93,2071.56c0,0,159.25,183.5,196.85,232.35c37.6,48.85,156.39,130.2,220.97,148.51
	c1.64,0.47,3.28,0.93,4.76,1.2c61.39,15.11,92.7-22.65,92.7-22.65s0.14-12.8,0.18-33.04c0-26.85-0.13-66.67-1.21-106.52
	c-1.27-53.06-4.17-105.99-9.97-128.02c-9.92-37.55-150.44-307.37-223.11-445.71c-25.77-48.85-42.98-81.37-42.98-81.37
	c-194.46,108.92-233.15,390.39-237.47,430.36c-0.1,0.61-0.23,1.11-0.24,1.59c-0.13,0.5-0.16,0.86-0.2,1.23
	c-0.1,0.61-0.14,0.98-0.18,1.34C1644.99,2071.31,1644.93,2071.56,1644.93,2071.56z"/>
<path class="st6" d="M1587.45,1086.49c0,0-90.98,50.86-125.64,56.25c-34.67,5.39-97.78-62.48-97.78-62.48
	S1440.81,1101.37,1587.45,1086.49z"/>
<path class="st6" d="M1651.51,1076.5c0,0-38.63,268.53,151.38,465.22c0,0-177.29-143.78-215.45-455.23L1651.51,1076.5z"/>
<path class="st6" d="M1379.67,1090.23c0,0-65.7,196.94-70.3,345.73c0,0-34.56-170.3,27.3-342.44l27.36-13.26L1379.67,1090.23z"/>
<path class="st6" d="M1909.42,1686.2c0,0-134.07,70.97-238.8,415.01l-25.64-29.65c0,0,29.54-344.24,238.07-435.27L1909.42,1686.2z"
	/>
<path class="st6" d="M1264.23,1772.51c0,0,125.51,239.2,299.31,298.09l-8.42,20.74c0,0-181.39-34.8-295.96-223.93L1264.23,1772.51z"
	/>
<path class="st5" d="M2203.45,1467.99c0,0,40.39-20.12,31.77-64.11c-8.53-44.13-38.58-109.18-38.58-109.18l-22.19-4.1
	C2174.45,1290.59,2085.43,1385.28,2203.45,1467.99z"/>
<path class="st6" d="M2219.56,1431.95c0,0-63.87-78.93-22.92-137.25C2196.64,1294.69,2251.06,1407.72,2219.56,1431.95z"/>
<path class="st7" d="M2184,1340.02c0,0,4.37-61.49,56.81-84.98l6.12,27.78c0,0,68.54-58.86,129.49-21.39
	c0,0-8.08,122.25-165.85,159.07C2210.56,1420.5,2184.27,1390.66,2184,1340.02z"/>
<path class="st8" d="M2109.6,2075.16c0,0,17.88,86.27-95.84,155c-113.72,68.73-206.61,31.18-206.61,31.18s41.11,55.43,71.63,80.09
	c30.52,24.66,207.95-18.49,277.67-116.83c0,0,0.03-46.12-10.52-70.66C2135.39,2129.39,2109.6,2075.16,2109.6,2075.16z"/>
<path class="st8" d="M1521.93,2204.52c0,0-77.06,64.96-167.89,93.92c-90.83,28.96-165.02-9.47-165.02-9.47s22.61,59.12,55.32,93.88
	c0,0,104.24,7.46,161.79-18.66c57.55-26.11,99.74-81.24,99.74-81.24L1521.93,2204.52z"/>
<path class="st8" d="M1918.38,1228.19c0,0-167.3,172.3,7.54,377.57c0,0-40.24-8.57-75.06-33.73
	c-53.72-35.34-169.01-312.47,4.79-373.78L1918.38,1228.19z"/>
<g>
	<path class="st13" d="M1562.31,2071.38l2.44-1.55c-1.09-1.71-108.97-172.51-137.27-301.08c-24.49-111.28-19.99-169.61-13.75-250.35
		c2.36-30.51,5.03-65.09,6.26-106.42c4.32-145.45,27.35-264.22,27.58-265.4l-2.84-0.55c-0.23,1.18-23.31,120.19-27.63,265.88
		c-1.23,41.26-3.89,75.8-6.25,106.28c-6.26,80.99-10.78,139.5,13.81,251.19C1453.07,1898.43,1561.23,2069.67,1562.31,2071.38z"/>
</g>
<linearGradient id="SVGID_7_" gradientUnits="userSpaceOnUse" x1="3640.9961" y1="1493.4672" x2="4649.9072" y2="1493.4672" gradientTransform="matrix(-0.9766 0.215 0.215 0.9766 5479.0322 -561.406)">
	<stop  offset="0" style="stop-color:#FFFFFF"/>
	<stop  offset="1" style="stop-color:#9579A7"/>
</linearGradient>
<path class="st14" d="M1474.7,2448.42l7.56-1.66c10.3-92.38,35.12-270.28,81.36-376.13l81.33,0.9c0,0,159.25,183.5,196.85,232.35
	c37.6,48.85,156.39,130.2,220.97,148.51c1.64,0.47,3.28,0.93,4.76,1.2l92.88-55.69c0-26.85-0.13-66.67-1.21-106.52l-7.42-3.1
	c0,0-100.43,91.77-201.2,71.84c-100.77-19.92-239.82-280.36-231.53-323.82c30.97-162.34,145.26-270.63,207.07-318.65
	c-25.77-48.85-42.98-81.37-42.98-81.37s-12.69-17.9-37.48-67.67c49.98,33.11,103.76,50.13,157.09,40.99
	c119.07-20.53,180.65-108.24,196.55-134.33c-17.73,27.44-93.45,126.18-264.31,114.47c-36.25-2.43-68.36-15.59-96.45-35.77
	c-125.64-89.9-173.37-320.18-173.63-368.14c0-8.04,0.68-15.17,1.98-21.61l-0.03-0.11c8.24-40.48,38.66-51.09,38.66-51.09
	c-5.47-3.88-9.33-6.93-11.34-9.09c-16.47-17.31-42.6-27.52-42.6-27.52l-13.35,2.23c-0.3,4.56-0.84,10.71-1.33,18.15
	c-2.56,41.01-5.01,122.32,7.11,209.06c0.02,0.11,0.02,0.11,0.05,0.23c7.35,53.26,20.26,108.72,41.9,158.12
	c72.16,164.47,98.82,193.73,98.82,193.73s-104.29,242.93-181.27,296.18c-77.11,53.16-255.42-70.79-297.29-126.15
	c-19.97-26.24-33.27-44.24-41.97-55.81c0.38,18.37,1.25,36.86,2.86,55.43c0,0-4.48,21.56-11.05,55.65
	c41.04,58.02,180.43,258.78,201.78,335.33C1482.83,2308.62,1474.7,2448.42,1474.7,2448.42z"/>
<path class="st15" d="M1651.53,1076.44c0,0-55.07,141.58-201.55,211.1c-146.47,69.51-154.4-185.65-154.4-185.65l41.07-8.37
	l22.35-4.96L1651.53,1076.44z"/>
<path class="st5" d="M1358.31,2374.15l-8.7-20.57l6.57-52c0,0-114.38,37.13-190.84,18.58c0,0,33.38,41.79,93.83,60.83
	c0,0-64.71,21.45-69.5,87.2L1358.31,2374.15z"/>
<path class="st5" d="M1965.24,2424.8l125.91,53.53l5.96,27.07c0,0,66.92,95.02,180.76,106.62c0,0-6.62-97.77-109.68-158.7
	l1.16-140.87c0,0-21.46,52.97-76.09,92.2C2041.06,2442.05,1971.36,2426.29,1965.24,2424.8z"/>
<polygon class="st3" points="1358.34,2374.16 1367.83,2384.65 1194.52,2479.11 1189.72,2468.18 "/>
<linearGradient id="SVGID_8_" gradientUnits="userSpaceOnUse" x1="4642.0444" y1="1933.8518" x2="4832.4136" y2="1933.8518" gradientTransform="matrix(-0.9766 0.215 0.215 0.9766 5479.0322 -561.406)">
	<stop  offset="0" style="stop-color:#FFFFFF"/>
	<stop  offset="1" style="stop-color:#9579A7"/>
</linearGradient>
<path class="st16" d="M1165.35,2320.16c0,0,33.38,41.79,93.83,60.83c0,0,69.45-11.11,99.14-6.83l-8.7-20.57l6.57-52
	C1356.18,2301.58,1241.8,2338.71,1165.35,2320.16z"/>
<linearGradient id="SVGID_9_" gradientUnits="userSpaceOnUse" x1="3850.2148" y1="2168.5627" x2="4073.7131" y2="2168.5627" gradientTransform="matrix(-0.9766 0.215 0.215 0.9766 5479.0322 -561.406)">
	<stop  offset="0" style="stop-color:#FFFFFF"/>
	<stop  offset="1" style="stop-color:#9579A7"/>
</linearGradient>
<path class="st17" d="M1965.24,2424.8l125.91,53.53c44.08-2.84,77.05-25,77.05-25l1.16-140.87c0,0-21.46,52.97-76.09,92.2
	C2041.06,2442.05,1971.36,2426.29,1965.24,2424.8z"/>
<linearGradient id="SVGID_10_" gradientUnits="userSpaceOnUse" x1="3476.7917" y1="1186.6823" x2="3630.8728" y2="1186.6823" gradientTransform="matrix(-0.9766 0.215 0.215 0.9766 5479.0322 -561.406)">
	<stop  offset="0" style="stop-color:#FFFFFF"/>
	<stop  offset="1" style="stop-color:#9579A7"/>
</linearGradient>
<path class="st18" d="M2339.01,1346.26c0,0-52.7,44.13-100.54,40.03c-47.84-4.1-53.23-54.74-53.23-54.74s-10.96,39.29,25.33,88.95
	C2210.56,1420.5,2299.73,1401.43,2339.01,1346.26z"/>
<linearGradient id="SVGID_11_" gradientUnits="userSpaceOnUse" x1="4908.7188" y1="667.7781" x2="5002.3911" y2="667.7781" gradientTransform="matrix(-0.9766 0.215 0.215 0.9766 5479.0322 -561.406)">
	<stop  offset="0" style="stop-color:#9579A7"/>
	<stop  offset="1" style="stop-color:#FFFFFF"/>
</linearGradient>
<path class="st19" d="M738.68,1172.69c27.14,22.29,50.16,32.84,50.16,32.84s32.85-33.96,34.3-84.9c0,0-2.46-9.04-6.82-22.39
	C816.32,1098.24,811.3,1149.61,738.68,1172.69z"/>
<path class="st5" d="M1480.56,1361.34c9,40.87,49.42,66.71,90.3,57.72c40.87-9,66.71-49.42,57.72-90.3
	c-9-40.87-49.42-66.71-90.3-57.72C1497.4,1280.04,1471.56,1320.47,1480.56,1361.34z"/>
<path class="st7" d="M1508.05,1355.29c5.65,25.69,31.07,41.93,56.76,36.28c25.69-5.65,41.93-31.07,36.28-56.76
	c-5.66-25.69-31.07-41.93-56.76-36.28C1518.64,1304.19,1502.39,1329.6,1508.05,1355.29z"/>
<path class="st5" d="M1827.31,1184.76c0,0-81.08,69.34-110.42-63.93C1716.89,1120.83,1796.49,1168.17,1827.31,1184.76z"/>
<g>
	<path class="st13" d="M1536.64,2149.04l-0.04-2.88c-2.6,0.04-260.83,3.23-325.5-74.25l-2.22,1.85
		C1274.44,2152.31,1525.97,2149.22,1536.64,2149.04z"/>
</g>
<g>
	<path class="st13" d="M1727.93,2172.97c0.03-0.64,2.98-64.81,31.44-134.18c44.81-109.19,213.04-228.55,214.73-229.75l-1.66-2.36
		c-1.7,1.19-170.61,121.04-215.74,231.01c-28.67,69.87-31.64,134.51-31.67,135.16L1727.93,2172.97z"/>
</g>
<g>
	<path class="st13" d="M2112.51,1564.94l2.67-1.09c-52.22-127.91-44.1-204.28-28.1-245.82c17.24-44.74,46.95-59.6,47.25-59.75
		l-1.26-2.59c-1.26,0.61-31.04,15.51-48.68,61.3C2068.2,1359.02,2059.93,1436.14,2112.51,1564.94z"/>
</g>
<g>
	<path class="st13" d="M908.85,1382.1c111.93-122.25-6.31-304.6-7.51-306.43l-2.41,1.59c1.2,1.81,118.19,182.32,7.79,302.9
		L908.85,1382.1z"/>
</g>
<path class="st20" d="M1581.56,1568.96c0,0,3.66,19.07,18.45,48.17l34.23-11.36c0,0-5.89-27.86-26.3-45.22L1581.56,1568.96z"/>
<path class="st20" d="M2061.32,1272.92c0,0-19.36,3.69-37.22-2.83l-15.5,14.44c0,0,24.96,19.46,46.29,7.23L2061.32,1272.92z"/>
<path class="st20" d="M2037.24,2083.58c0,0,19.69,20.14,25.21,45.19l-24.44,16.39l-21.54-45.25L2037.24,2083.58z"/>
<path class="st20" d="M853.97,1054.37c0,0,14.82,8.79,22.97,30.53l23.6,7.96c0,0-4.85-10.42-12.66-19.34
	C880.07,1064.59,853.97,1054.37,853.97,1054.37z"/>
<path class="st20" d="M1234.14,2149.65c0,0-21.78,58-19.74,87.43l-25.55-4.09c0,0-4.03-45.44,15.52-85.59L1234.14,2149.65z"/>
<g>
	
		<linearGradient id="SVGID_12_" gradientUnits="userSpaceOnUse" x1="4268.6997" y1="-142.2962" x2="4268.6997" y2="379.3163" gradientTransform="matrix(-0.9766 0.215 0.215 0.9766 5479.0322 -561.406)">
		<stop  offset="0" style="stop-color:#007C7E"/>
		<stop  offset="1" style="stop-color:#0F183B"/>
	</linearGradient>
	<path class="st21" d="M992.48,838.53c0.72,1.63,1.32,3.29,2.16,4.91c28.72,37.07,131.25,137.39,327.71,118.06
		c241.62-23.78,298.95-221.69,298.95-221.69l46.73-1.68c2.86-29.92,6.77-57.2,11.47-82.02c25.76-139.32,73.56-201.84,74.79-222.31
		c1.5-24.12-36.74-165.85-199.71-243.66c-108.05-51.53-216.29-54.48-294.55-45.62c-39.18,7.19-74.72,16.81-104.42,28.48
		c-20.14,7.9-37.55,16.75-51.45,26.39l-5.76,4.26c-4.02,2.92-7.51,6.08-10.77,9.18c-72.28,70.78-108.93,170.42-123.82,271.12
		C942.72,626.06,965.15,770.31,992.48,838.53z"/>
	
		<radialGradient id="SVGID_13_" cx="4163.252" cy="274.7036" r="751.0027" gradientTransform="matrix(-0.9766 0.215 0.215 0.9766 5479.0322 -561.406)" gradientUnits="userSpaceOnUse">
		<stop  offset="0" style="stop-color:#00C6FF"/>
		<stop  offset="0.1459" style="stop-color:#00AEE0"/>
		<stop  offset="0.4663" style="stop-color:#007090"/>
		<stop  offset="0.9344" style="stop-color:#000E12"/>
		<stop  offset="1" style="stop-color:#000000"/>
	</radialGradient>
	<path class="st22" d="M992.48,838.53c0.72,1.63,1.32,3.29,2.16,4.91c28.72,37.07,131.25,137.39,327.71,118.06
		c241.62-23.78,298.95-221.69,298.95-221.69l46.73-1.68c2.86-29.92,6.77-57.2,11.47-82.02c25.76-139.32,73.56-201.84,74.79-222.31
		c1.5-24.12-36.74-165.85-199.71-243.66c-108.05-51.53-216.29-54.48-294.55-45.62c-39.18,7.19-74.72,16.81-104.42,28.48
		c-20.14,7.9-37.55,16.75-51.45,26.39l-5.76,4.26c-4.02,2.92-7.51,6.08-10.77,9.18c-72.28,70.78-108.93,170.42-123.82,271.12
		C942.72,626.06,965.15,770.31,992.48,838.53z"/>
	<g>
		
			<linearGradient id="SVGID_14_" gradientUnits="userSpaceOnUse" x1="4644.0269" y1="70.8467" x2="3910.3706" y2="337.8756" gradientTransform="matrix(-0.9766 0.215 0.215 0.9766 5479.0322 -561.406)">
			<stop  offset="0" style="stop-color:#00C6FF"/>
			<stop  offset="0.1459" style="stop-color:#00AEE0"/>
			<stop  offset="0.4663" style="stop-color:#007090"/>
			<stop  offset="0.9344" style="stop-color:#000E12"/>
			<stop  offset="1" style="stop-color:#000000"/>
		</linearGradient>
		<path class="st23" d="M1273.58,965.76c-176.82,0-263.69-99.66-280.39-121.21c-0.76-1.41-1.23-2.54-1.71-3.69
			c-0.22-0.53-0.44-1.07-0.68-1.6l-0.02-0.06c-29.56-73.8-48.95-219.62-28.79-355.53c17.25-116.69,59.09-208.26,124.35-272.16
			c3.03-2.89,6.7-6.25,10.98-9.36l5.74-4.24c13.84-9.6,31.28-18.55,51.87-26.62c29.6-11.64,64.85-21.26,104.77-28.58
			c73.68-8.34,184.67-7.16,295.66,45.77c157.34,75.12,202.67,214.67,200.76,245.42c-0.41,6.79-5.43,17.45-13.03,33.57
			c-16.52,35.05-44.18,93.72-61.78,188.96c-4.86,25.68-8.71,53.22-11.45,81.86l-0.15,1.6l-47.04,1.69
			c-2.62,8.13-18.5,53.82-58.84,101.33c-40.85,48.11-115.88,108.05-241.3,120.4C1305.5,964.99,1289.18,965.76,1273.58,965.76z
			 M994.17,837.82c0.24,0.55,0.47,1.1,0.7,1.65c0.43,1.05,0.87,2.1,1.4,3.13c17.78,22.91,117.93,137.55,325.9,117.07
			c124.12-12.21,198.35-71.45,238.76-118.99c43.83-51.56,58.47-100.89,58.61-101.38l0.37-1.27l46.45-1.67
			c2.74-28.18,6.55-55.28,11.34-80.58c17.69-95.7,45.47-154.63,62.07-189.84c7.42-15.75,12.33-26.15,12.69-32.24
			c0.69-11.16-7.88-52-37.91-100.62c-25.77-41.73-74.58-100.12-160.77-141.27c-110.2-52.55-220.47-53.72-293.55-45.46
			c-39.56,7.27-74.58,16.82-103.96,28.37c-20.33,7.97-37.51,16.78-51.08,26.19l-5.71,4.22c-4.12,2.99-7.67,6.25-10.6,9.04
			c-64.65,63.31-106.14,154.18-123.26,270.06C945.55,619.46,964.79,764.46,994.17,837.82z"/>
	</g>
	<path class="st24" d="M1120.5,708.92c-8.14,31.13-51.85,68.15-30.34,135.19c7.01,21.86,23.57,46.43,46.13,69.27
		c46.39,47.2,118.14,87.16,182.87,80.99c2.89-0.27,5.91-0.72,8.85-1.06c-18.47-85.38,37.27-159.35,117.1-182.49
		c32.68-9.47,84.2-42.81,115.53-61.66c1.02-12.34,1.7-24.68,2.21-37.09c1.55-37.82-3.69-67.81-12.07-105.4
		c-18.25-81.9,25.34-140.86,84.79-166.97c-18.63-8.46-35.14-20.22-49.41-35.51c-7.67-10.84-15.34-21.67-23.01-32.51
		c-13-25.02-18.85-51.61-17.56-79.77c0.26-3.84,0.33-7.7,0.75-11.53c0.09-0.84,0.21-1.67,0.33-2.51c0.88-5.96,2.01-12.78,3.24-19.61
		c-22.61-26.02-47.85-66.21-65.54-127.7c0-0.05-0.01-0.09-0.01-0.14c0,0-0.02,0.04-0.03,0.04c0-0.01,0-0.02-0.01-0.03
		c0,0-0.04,0.09-0.04,0.1c-0.43,0.6-24.89,34.93-20.34,74.89c0,0-0.09-0.05-0.1-0.05c-0.77-0.67-109.97-95.97-166.62-56.7
		c-11.35,7.87-19.01,21.07-24.08,37.09c-37.17-2.87-86.17-9.94-133.93-26.34c-4.76,3.51-9.92,6.7-15.33,9.69
		c-0.58,15.44,0.59,40.62,11.49,63.61c-10.06-4.35-23.2-20.11-26.36-31.62c0,0-30.15,77.45,19.11,126.45
		c0.28,0.28,0.5,0.59,0.79,0.88c0.77,0.77,1.66,1.38,2.46,2.11c1.84,1.7,3.54,3.45,5.56,5.1c0,0-0.35,0.3-0.86,0.75
		c-5.17,4.03-11.54,11.73-15.38,16.65c-0.37,0.47-0.73,0.94-1.1,1.42c-1.38,1.8-2.26,3-2.26,3c0,0.01,0.01,0.01,0.01,0.02
		c-19.33,19.32-31.41,82.69-22.2,130.17c0,0,9.21-16.09,31.6-33.35c-1.32,11.8-0.69,21.76-0.69,21.76c0.01-0.01,0.02-0.01,0.03-0.02
		c-4.26,23.48-5.67,47.47-4.53,71.57c1.73,35.94,3.27,65.38,3.79,89.93c-0.68,12.28-0.74,24.38-0.23,35.33
		c-0.26,5.87-0.62,11.49-1.19,16.59c0,0-0.17,0.85-0.24,2.36C1122.93,698.11,1121.83,703.7,1120.5,708.92z M1149.2,406.35
		c1.13-5.38,2.13-9.41,2.7-10.06l0.01,0.01l4.2-3.95C1153.52,396.93,1151.48,401.67,1149.2,406.35z"/>
	<g>
		<path class="st25" d="M1548.48,922.26c0,0-7.34,32.25,6.01,69.22c0,0-99.1,85.22-130.94,90.61c-31.84,5.4,1.51-50.17,1.51-50.17
			s8.18-35.3,2.1-64.2L1548.48,922.26z"/>
		
			<linearGradient id="SVGID_15_" gradientUnits="userSpaceOnUse" x1="-494.2487" y1="388.0704" x2="-494.2487" y2="-305.2849" gradientTransform="matrix(0.9515 -0.3076 0.3076 0.9515 1872.2982 424.128)">
			<stop  offset="0.016" style="stop-color:#FFAE78"/>
			<stop  offset="1" style="stop-color:#FF957C"/>
		</linearGradient>
		<path class="st26" d="M1741.31,428.69c41.31,136.44-6.41,331-88.43,419.09c-82.02,88.09-217.91,135.61-320.92,145.62
			c-65.11,6.38-137.05-32.61-183.46-78.85c-22.57-22.37-39.09-46.47-46.04-67.96c-21.3-65.89,22.83-102.54,31.16-133.22
			c1.36-5.14,2.49-10.66,3.29-16.85c0.08-1.48,0.26-2.32,0.26-2.32c3.65-30.62,1.18-74.61-1.7-139.62
			c-3.48-80.04,21.35-159.05,92.06-221.54C1383.23,195.48,1700,292.25,1741.31,428.69z"/>
		
			<linearGradient id="SVGID_16_" gradientUnits="userSpaceOnUse" x1="-482.7969" y1="388.0704" x2="-482.7969" y2="-305.2849" gradientTransform="matrix(0.9515 -0.3076 0.3076 0.9515 1872.2982 424.128)">
			<stop  offset="0.016" style="stop-color:#F0C2D6"/>
			<stop  offset="0.9944" style="stop-color:#BD89C4"/>
		</linearGradient>
		<path class="st27" d="M1741.31,428.69c41.31,136.44-6.41,331-88.43,419.09c-82.02,88.09-217.91,135.61-320.92,145.62
			c-65.11,6.38-137.05-32.61-183.46-78.85l-0.07-0.2c0,0,62.2,28.84,121.41,30.18c59.14,1.48,187.69-33.33,260.11-106.45
			c72.39-73.22,96.46-155.28,85.73-168.38c-10.63-13.13-33.02,4.06-33.02,4.06s-98.17,120.29-194.48,82.47
			c-69.91-27.45-55.77-280.22-10.05-344.49c0,0,145.45,38.85,186.79,123.45c0,0,22.06-58.52-7.66-124.48
			c-29.72-65.96-106.4-87.75-184.86-68.99c-78.33,18.83-106.34,50.61-106.34,50.61s-74.71,20.68-90.67,53.38
			c0,0,42.69,70.06,61.3,116.21c18.75,46.22,4.04,140.99-5.04,154.45c-9.19,13.49-50.98,34.84-76.54,33.36
			c-22.36-1.28-19.35-42.89-18.21-53.22c0.08-1.48,0.26-2.32,0.26-2.32c3.65-30.62,1.18-74.61-1.7-139.62
			c-3.48-80.04,21.35-159.05,92.06-221.54C1383.23,195.48,1700,292.25,1741.31,428.69z"/>
		
			<linearGradient id="SVGID_17_" gradientUnits="userSpaceOnUse" x1="-425.5655" y1="249.6511" x2="-425.5655" y2="-469.2059" gradientTransform="matrix(0.9515 -0.3076 0.3076 0.9515 1872.2982 424.128)">
			<stop  offset="5.586590e-03" style="stop-color:#813645"/>
			<stop  offset="1" style="stop-color:#BD5042"/>
		</linearGradient>
		<path class="st28" d="M1773.36,501.51l0.07,0.2c0.04,95.37-34.14,197.78-34.14,197.78c-31.52,6.05-78.1,53.12-81.43,56.33
			c1.86-4.97,33.05-85.47,27.13-124.2c-6-40.04-28.79-109.14-28.79-109.14s0,0-2.92-56.82c-3.34-62.62-55.68-104.37-55.68-104.37
			c-57.62,4.63-80.15-47.76-80.15-47.76s-23.57-26.86-83.16-20.7c-59.58,6.16-149.48,74.41-149.48,74.41
			c-31.49,6.49-74.33-2.06-74.33-2.06c-20.09,12.99-47.29,44.17-47.29,44.17c-34.45,20.54-62.84,56.7-62.84,56.7
			c-2.37-76.6,51.59-120.24,51.59-120.24c-60.47-48.52-38.76-119.91-38.76-119.91c16.69,17,37.7,18.6,37.7,18.6
			c-17.09-35.56-9.91-77.07-9.91-77.07c95.89,42.78,229.07,30.51,229.07,30.51c50.6-10.76,111.31,18.09,111.31,18.09
			c-4.42-39.66,20.88-73.93,20.88-73.93c-0.29,54.17,57.16,130.76,94.04,146.83c36.98,16.03,124.19,20.53,163.67,125.32
			C1769.61,440.03,1773.37,470.38,1773.36,501.51z"/>
		
			<linearGradient id="SVGID_18_" gradientUnits="userSpaceOnUse" x1="-397.986" y1="11.097" x2="-397.986" y2="-163.7878" gradientTransform="matrix(0.9515 -0.3076 0.3076 0.9515 1872.2982 424.128)">
			<stop  offset="5.586590e-03" style="stop-color:#813645"/>
			<stop  offset="1" style="stop-color:#BD5042"/>
		</linearGradient>
		<path class="st29" d="M1378.18,411.73c0,0,0.67,27.77,18.73,50.86c0,0,75.63,9.14,111.94,29.12
			c36.31,19.98,56.03,43.46,56.03,43.46S1513.29,434.3,1378.18,411.73z"/>
		
			<linearGradient id="SVGID_19_" gradientUnits="userSpaceOnUse" x1="-681.0439" y1="-71.6561" x2="-681.0439" y2="-216.7525" gradientTransform="matrix(0.9515 -0.3076 0.3076 0.9515 1872.2982 424.128)">
			<stop  offset="5.586590e-03" style="stop-color:#813645"/>
			<stop  offset="1" style="stop-color:#BD5042"/>
		</linearGradient>
		<path class="st30" d="M1157.87,427.29c0,0,44,35.43,76.63,127.72c0,0-57.09-102.32-94.17-70.89
			C1140.33,484.11,1137.47,438.87,1157.87,427.29z"/>
		<path class="st31" d="M1355.83,641.89c0,0,0.63-77.46,60.4-97.49c48.43-16.23,105.07,21.89,125.04,104.62L1355.83,641.89z"/>
		<path class="st32" d="M1292.76,753.26c0,0-32.06-38.98-51.83-34.78c-19.77,4.2-53.19,40.22-53.19,40.22s16.96,14.36,45.78,13.7
			C1262.35,771.75,1292.76,753.26,1292.76,753.26z"/>
		
			<linearGradient id="SVGID_20_" gradientUnits="userSpaceOnUse" x1="-478.4903" y1="176.453" x2="-478.4903" y2="-9.5978" gradientTransform="matrix(0.9515 -0.3076 0.3076 0.9515 1872.2982 424.128)">
			<stop  offset="0" style="stop-color:#FFFFFF"/>
			<stop  offset="1" style="stop-color:#D0C7F8"/>
		</linearGradient>
		<path class="st33" d="M1367.52,721.19c-23-41.55-19.01-131,46.65-158.76c65.66-27.76,135.52,54.68,129.17,114.92
			C1537.24,735.37,1397.28,774.96,1367.52,721.19z"/>
		<path class="st34" d="M1187.75,758.71c0,0,18.37,11.42,53.61,6.53c43.59-6.04,51.4-11.98,51.4-11.98s14.86,10.53-1.17,21.63
			c-10.62,7.35-42.48,36.14-77.69,30.95C1198.03,803.5,1179.98,771.29,1187.75,758.71z"/>
		
			<linearGradient id="SVGID_21_" gradientUnits="userSpaceOnUse" x1="-729.3982" y1="85.8778" x2="-729.3982" y2="-88.5068" gradientTransform="matrix(0.9515 -0.3076 0.3076 0.9515 1872.2982 424.128)">
			<stop  offset="0" style="stop-color:#FFFFFF"/>
			<stop  offset="1" style="stop-color:#D0C7F8"/>
		</linearGradient>
		<path class="st35" d="M1141.1,704.04c3.98,20.8,13.29,37.5,30.01,35.84c16.72-1.66,55.46-17.46,64.42-60.46
			c5.93-28.44-26.75-121.7-63.89-121.16C1140,558.74,1133.3,663.33,1141.1,704.04z"/>
		<g>
			<defs>
				<path id="SVGID_22_" d="M1367.52,721.19c-23-41.55-19.01-131,46.65-158.76c65.66-27.76,135.52,54.68,129.17,114.92
					C1537.24,735.37,1397.28,774.96,1367.52,721.19z"/>
			</defs>
			<clipPath id="SVGID_23_">
				<use xlink:href="#SVGID_22_"  style="overflow:visible;"/>
			</clipPath>
			
				<linearGradient id="SVGID_24_" gradientUnits="userSpaceOnUse" x1="-472.3798" y1="942.2681" x2="-472.3798" y2="809.8971" gradientTransform="matrix(1.1495 -5.500000e-03 6.700000e-03 1.3787 1930.0736 -541.4536)">
				<stop  offset="5.586590e-03" style="stop-color:#6F8B8B"/>
				<stop  offset="0.9832" style="stop-color:#5C435B"/>
			</linearGradient>
			<path class="st36" d="M1445.35,668.75c0.24,50.39-23.02,91.36-51.97,91.5c-28.94,0.14-52.61-40.6-52.85-91
				c-0.24-50.4,23.02-91.36,51.97-91.5C1421.45,577.61,1445.11,618.35,1445.35,668.75z"/>
			<path class="st37" d="M1425.99,666.53c0.18,36.73-16.78,66.58-37.87,66.68c-21.09,0.1-38.34-29.59-38.51-66.31
				c-0.18-36.73,16.78-66.58,37.87-66.68C1408.57,600.12,1425.82,629.81,1425.99,666.53z"/>
		</g>
		<g>
			<defs>
				<path id="SVGID_25_" d="M1141.1,704.04c3.98,20.8,13.29,37.5,30.01,35.84c16.72-1.66,55.46-17.46,64.42-60.46
					c5.93-28.44-26.75-121.7-63.89-121.16C1140,558.74,1133.3,663.33,1141.1,704.04z"/>
			</defs>
			<clipPath id="SVGID_26_">
				<use xlink:href="#SVGID_25_"  style="overflow:visible;"/>
			</clipPath>
			
				<linearGradient id="SVGID_27_" gradientUnits="userSpaceOnUse" x1="-2746.9619" y1="985.3567" x2="-2746.9619" y2="847.047" gradientTransform="matrix(0.6215 0.0181 -0.0333 1.1431 2898.708 -322.3824)">
				<stop  offset="5.586590e-03" style="stop-color:#6F8B8B"/>
				<stop  offset="0.9832" style="stop-color:#5C435B"/>
			</linearGradient>
			<path class="st38" d="M1190.57,676.07c-1.27,43.66-15.56,78.67-31.91,78.19c-16.35-0.48-28.58-36.25-27.31-79.91
				c1.27-43.66,15.56-78.66,31.91-78.19C1179.61,596.63,1191.84,632.41,1190.57,676.07z"/>
			<path class="st39" d="M1174.24,675.38c-0.93,31.82-11.34,57.33-23.25,56.98c-11.92-0.35-20.83-26.42-19.9-58.24
				c0.93-31.82,11.34-57.33,23.25-56.98C1166.26,617.49,1175.16,643.56,1174.24,675.38z"/>
		</g>
		<path class="st40" d="M1244.28,628.55c0,0-2.7,69.4-19.58,90.06c-14.02,17.16-29.61,24.73-40.07,32.78
			c-10.46,8.05,0.98,46.33,29.26,54.45c0,0-35.66-24.57-26.15-47.13c4.06-9.64,37.33-21.12,47.18-43.65
			C1248.82,683.28,1244.28,628.55,1244.28,628.55z"/>
		<path class="st41" d="M1252.45,793.71c0,0-22.12-16.42,37.26-19.76c0,0-8.17,3.23-20.73,9.1
			C1256.88,788.7,1252.45,793.71,1252.45,793.71z"/>
		<path class="st42" d="M1208.74,841.56c0,0,11.23,6.17,25.83,6.58c14.59,0.41,78.34-17.4,106.35-25.99
			c28.01-8.59,46.37-21.06,46.37-21.06l5.82,4.21c0,0-37.99,33.72-80.72,53.59c-42.73,19.88-64.92,20.52-74.17,19.31
			c-9.25-1.21-26.89-28.63-26.89-28.63L1208.74,841.56z"/>
		<path class="st43" d="M1223.37,846.7c0,0,12.57,24.03,23.31,27.38c10.75,3.35,60.81-11.03,90.97-31.74l20.8-26.46
			C1358.45,815.87,1253.58,853.56,1223.37,846.7z"/>
		
			<linearGradient id="SVGID_28_" gradientUnits="userSpaceOnUse" x1="-573.4244" y1="233.9641" x2="-578.2869" y2="193.1433" gradientTransform="matrix(0.9515 -0.3076 0.3076 0.9515 1872.2982 424.128)">
			<stop  offset="5.586590e-03" style="stop-color:#BD89C4"/>
			<stop  offset="0.984" style="stop-color:#F0C2D6"/>
		</linearGradient>
		<path class="st44" d="M1373.11,794.02l8.82-8.45c0,0,19.68,12.18,26.44,33.09C1408.36,818.66,1380.99,795.67,1373.11,794.02z"/>
		<path class="st20" d="M1477.36,625.66c2.12,6.57-1.48,13.61-8.05,15.74c-6.57,2.12-13.62-1.48-15.74-8.05
			c-2.12-6.57,1.48-13.61,8.05-15.74C1468.19,615.49,1475.24,619.09,1477.36,625.66z"/>
		<path class="st20" d="M1205.1,612.65c1.81,5.59-1.26,11.59-6.85,13.4c-5.59,1.81-11.59-1.26-13.4-6.85
			c-1.81-5.59,1.26-11.59,6.85-13.4C1197.29,603.99,1203.29,607.06,1205.1,612.65z"/>
		<path class="st31" d="M1144.19,601.76c0,0,4.99-44.62,29.66-51.19c24.67-6.58,63.65,75.39,62.37,119.94
			c0,0-19.72-86.61-67.66-99.1C1168.55,571.4,1153.02,574.26,1144.19,601.76z"/>
		
			<linearGradient id="SVGID_29_" gradientUnits="userSpaceOnUse" x1="-254.4448" y1="-181.1365" x2="-254.4448" y2="-382.1719" gradientTransform="matrix(0.9515 -0.3076 0.3076 0.9515 1872.2982 424.128)">
			<stop  offset="5.586590e-03" style="stop-color:#AA454F"/>
			<stop  offset="1" style="stop-color:#D98638"/>
		</linearGradient>
		<path class="st45" d="M1502.2,142.13c0,0-30.07,65.7,8.51,144.66c38.59,78.96,109,22.61,109,22.61S1541.39,277.8,1502.2,142.13z"
			/>
		
			<linearGradient id="SVGID_30_" gradientUnits="userSpaceOnUse" x1="-523.6486" y1="-326.8973" x2="-523.6486" y2="-469.1702" gradientTransform="matrix(0.9515 -0.3076 0.3076 0.9515 1872.2982 424.128)">
			<stop  offset="5.586590e-03" style="stop-color:#B14D4E"/>
			<stop  offset="1" style="stop-color:#D98638"/>
		</linearGradient>
		<path class="st46" d="M1140.94,167.49c0,0,6.78,84.96,59.33,115.56c52.56,30.59,152-84.05,152-84.05
			S1240.58,204.78,1140.94,167.49z"/>
		
			<linearGradient id="SVGID_31_" gradientUnits="userSpaceOnUse" x1="-686.8463" y1="-265.4347" x2="-611.6349" y2="-265.4347" gradientTransform="matrix(0.9515 -0.3076 0.3076 0.9515 1872.2982 424.128)">
			<stop  offset="0.016" style="stop-color:#F0C2D6"/>
			<stop  offset="0.9944" style="stop-color:#BD89C4"/>
		</linearGradient>
		<path class="st47" d="M1151.96,345.86l58.5,19.34l-43.75,40.27c0,0-22.98-14.53-34.58-38.06
			C1132.13,367.41,1143.97,351.47,1151.96,345.86z"/>
		
			<linearGradient id="SVGID_32_" gradientUnits="userSpaceOnUse" x1="-610.1452" y1="-234.8078" x2="-610.1452" y2="-422.1208" gradientTransform="matrix(0.9515 -0.3076 0.3076 0.9515 1872.2982 424.128)">
			<stop  offset="5.586590e-03" style="stop-color:#BD89C4"/>
			<stop  offset="0.984" style="stop-color:#F0C2D6"/>
		</linearGradient>
		<path class="st48" d="M1113.18,225.91c0,0,16.45,38.09,78.68,74.64c62.23,36.55,92.97,66.73,92.97,66.73
			s-95.24,15.83-140.91-28.51C1098.24,294.42,1113.18,225.91,1113.18,225.91z"/>
		
			<linearGradient id="SVGID_33_" gradientUnits="userSpaceOnUse" x1="-212.0101" y1="249.6511" x2="-212.0101" y2="-144.2931" gradientTransform="matrix(0.9515 -0.3076 0.3076 0.9515 1872.2982 424.128)">
			<stop  offset="5.586590e-03" style="stop-color:#BD89C4"/>
			<stop  offset="0.984" style="stop-color:#F0C2D6"/>
		</linearGradient>
		<path class="st49" d="M1773.36,501.51l0.07,0.2c0.04,95.37-34.14,197.78-34.14,197.78c-31.52,6.05-78.1,53.12-81.43,56.33
			c1.86-4.97,33.05-85.47,27.13-124.2c-6-40.04-28.79-109.14-28.79-109.14s0,0-2.92-56.82c-3.34-62.62-55.68-104.37-55.68-104.37
			s51.76-4.75,77.36-16.61c0,0-25.4,29.15-40.13,34.47c0,0,18.12,67.81,58.42,114.56C1733.53,540.36,1773.36,501.51,1773.36,501.51z
			"/>
		<g>
			
				<linearGradient id="SVGID_34_" gradientUnits="userSpaceOnUse" x1="-701.2618" y1="944.2361" x2="-701.2618" y2="745.0484" gradientTransform="matrix(0.9984 -0.0566 0.0566 0.9984 2385.1692 -87.829)">
				<stop  offset="0.0216" style="stop-color:#FF8359"/>
				<stop  offset="1" style="stop-color:#FF8B7C"/>
			</linearGradient>
			<path class="st50" d="M1676.16,735.77c0,0,53.34-50.06,116.52-41.88c63.18,8.18,44.16,133.7-35.42,181.97
				c-79.57,48.28-118.79,1.83-121.34-20.23C1633.36,833.57,1676.16,735.77,1676.16,735.77z"/>
			
				<linearGradient id="SVGID_35_" gradientUnits="userSpaceOnUse" x1="-770.8047" y1="852.6312" x2="-640.165" y2="852.6312" gradientTransform="matrix(0.9984 -0.0566 0.0566 0.9984 2385.1692 -87.829)">
				<stop  offset="5.586590e-03" style="stop-color:#B060F4"/>
				<stop  offset="1" style="stop-color:#FFEADB"/>
			</linearGradient>
			<path class="st51" d="M1667.34,793.44c0,0,46.53-49.16,92.95-48.46c46.42,0.7,31.22,78.28,31.22,78.28s-4.37-10.31-20.69-10.03
				c0,0-21.9,30.77-65.33,48.26c0,0,52.8-33.6,57.84-60.06c0,0-34.8,51.53-73.07,44.9C1652,839.7,1667.34,793.44,1667.34,793.44z"/>
			<path class="st40" d="M1667.65,830.28c0,0,48.17-0.08,61.73-21.43c13.56-21.34-2.24-39.56-2.24-39.56s-37.83,5.5-54.61,29.27
				C1672.53,798.57,1663.57,815.62,1667.65,830.28z"/>
		</g>
		<path class="st52" d="M1552.05,751.39c2.64,8.18-1.84,16.95-10.02,19.59c-8.18,2.64-16.95-1.84-19.59-10.02
			c-2.64-8.18,1.84-16.95,10.02-19.59C1540.63,738.73,1549.41,743.22,1552.05,751.39z"/>
		
			<linearGradient id="SVGID_36_" gradientUnits="userSpaceOnUse" x1="-422.3248" y1="-231.2565" x2="-422.3248" y2="-424.2162" gradientTransform="matrix(0.9515 -0.3076 0.3076 0.9515 1872.2982 424.128)">
			<stop  offset="5.586590e-03" style="stop-color:#AA454F"/>
			<stop  offset="1" style="stop-color:#D98638"/>
		</linearGradient>
		<path class="st53" d="M1290.57,369.15c0,0-33.91-169.1,23.44-208.16c57.34-39.06,167.31,55.07,167.31,55.07
			s5.12,40.31,16.53,65.56c0,0-76-33.07-136.71-13.08C1300.42,288.53,1290.57,369.15,1290.57,369.15z"/>
	</g>
	<path class="st24" d="M1307.11,166.38c-10.88,13.45-17,27.15-23.62,53.47c-12.33-11.22-10.35-34.1-10.35-34.1L1307.11,166.38z"/>
	<polygon class="st24" points="1151.94,345.82 1163.59,353.05 1137.08,346.6 	"/>
	<path class="st24" d="M1483.92,182.07c-4.3,21.06-0.76,44.71,7.4,69.89c-4.44,0.96-26.58-49.81-26.58-49.81L1483.92,182.07z"/>
	
		<linearGradient id="SVGID_37_" gradientUnits="userSpaceOnUse" x1="4166.8218" y1="775.0591" x2="4166.8218" y2="-245.1399" gradientTransform="matrix(-0.9766 0.215 0.215 0.9766 5479.0322 -561.406)">
		<stop  offset="0" style="stop-color:#D1BDE5"/>
		<stop  offset="1" style="stop-color:#FFFFFF"/>
	</linearGradient>
	<path class="st54" d="M968.72,858.22c0.89,1.79,1.43,3.49,2.32,5.28c11.11,23.39,33.49,50.58,64.2,77.27c0,0,1.72,1.78,5.29,4.47
		c57.4,48.63,141.56,95.51,233.41,117.84c148.92,36.43,374.48,44.9,529.3-42.33c154.66-87.19,241.99-381.77,212.72-481.63
		c-7.87-26.75-19.19-62.34-36.12-101.66c-45.93-107.12-132.32-241.59-296.01-298.45c-123.55-43.01-295.92-45.3-429.78-20.8
		c-41.85,7.72-79.65,18.03-111.35,30.47c-21.5,8.38-40.13,17.77-54.9,28.15l-6.13,4.5c-4.29,3.1-8.03,6.4-11.42,9.8
		C884.38,372.77,919,733.89,968.72,858.22z M963.82,483.93c14.93-100.65,51.46-200.25,123.78-271.14c3.3-3.05,6.73-6.28,10.73-9.15
		l5.85-4.27c13.93-9.69,31.2-18.46,51.48-26.4c29.72-11.67,65.18-21.3,104.35-28.43c78.33-8.96,186.46-5.94,294.5,45.61
		c163.01,77.87,201.3,219.45,199.83,243.62c-1.29,20.48-49.12,83-74.92,222.3c-4.63,24.86-8.58,52.06-11.42,81.99l-46.66,1.66
		c0,0-57.44,197.92-299.06,221.8c-196.45,19.23-298.99-81.05-327.68-118.12c-0.86-1.63-1.4-3.33-2.06-4.85
		C965.09,770.27,942.77,626,963.82,483.93z"/>
	
		<radialGradient id="SVGID_38_" cx="4388.269" cy="124.0061" r="477.6216" gradientTransform="matrix(-0.9766 0.215 0.215 0.9766 5479.0322 -561.406)" gradientUnits="userSpaceOnUse">
		<stop  offset="0" style="stop-color:#0F183B"/>
		<stop  offset="1" style="stop-color:#00E7FF"/>
	</radialGradient>
	<path class="st55" d="M992.48,838.53c0.72,1.63,1.32,3.29,2.16,4.91c28.72,37.07,131.25,137.39,327.71,118.06
		c241.62-23.78,298.95-221.69,298.95-221.69l46.73-1.68c2.86-29.92,6.77-57.2,11.47-82.02c25.76-139.32,73.56-201.84,74.79-222.31
		c1.5-24.12-36.74-165.85-199.71-243.66c-108.05-51.53-216.29-54.48-294.55-45.62c-39.18,7.19-74.72,16.81-104.42,28.48
		c-20.14,7.9-37.55,16.75-51.45,26.39l-5.76,4.26c-4.02,2.92-7.51,6.08-10.77,9.18c-72.28,70.78-108.93,170.42-123.82,271.12
		C942.72,626.06,965.15,770.31,992.48,838.53z"/>
	
		<radialGradient id="SVGID_39_" cx="4380.1763" cy="55.8825" r="544.0741" gradientTransform="matrix(-0.9766 0.215 0.215 0.9766 5479.0322 -561.406)" gradientUnits="userSpaceOnUse">
		<stop  offset="0" style="stop-color:#000000"/>
		<stop  offset="0.2708" style="stop-color:#000002"/>
		<stop  offset="0.4085" style="stop-color:#00020A"/>
		<stop  offset="0.5161" style="stop-color:#000517"/>
		<stop  offset="0.6082" style="stop-color:#00092A"/>
		<stop  offset="0.6904" style="stop-color:#000E43"/>
		<stop  offset="0.7655" style="stop-color:#001561"/>
		<stop  offset="0.8353" style="stop-color:#001C85"/>
		<stop  offset="0.9008" style="stop-color:#0025AF"/>
		<stop  offset="0.9606" style="stop-color:#002FDD"/>
		<stop  offset="1" style="stop-color:#0036FF"/>
	</radialGradient>
	<path class="st56" d="M992.48,838.53c0.72,1.63,1.32,3.29,2.16,4.91c28.72,37.07,131.25,137.39,327.71,118.06
		c241.62-23.78,298.95-221.69,298.95-221.69l46.73-1.68c2.86-29.92,6.77-57.2,11.47-82.02c25.76-139.32,73.56-201.84,74.79-222.31
		c1.5-24.12-36.74-165.85-199.71-243.66c-108.05-51.53-216.29-54.48-294.55-45.62c-39.18,7.19-74.72,16.81-104.42,28.48
		c-20.14,7.9-37.55,16.75-51.45,26.39l-5.76,4.26c-4.02,2.92-7.51,6.08-10.77,9.18c-72.28,70.78-108.93,170.42-123.82,271.12
		C942.72,626.06,965.15,770.31,992.48,838.53z"/>
	
		<linearGradient id="SVGID_40_" gradientUnits="userSpaceOnUse" x1="3618.5469" y1="473.7" x2="4658.6831" y2="473.7" gradientTransform="matrix(-0.9766 0.215 0.215 0.9766 5479.0322 -561.406)">
		<stop  offset="0" style="stop-color:#FFFFFF"/>
		<stop  offset="1" style="stop-color:#9579A7"/>
	</linearGradient>
	<path class="st57" d="M1040.55,945.26c57.34,48.56,141.57,95.4,233.32,117.9c148.98,36.41,374.51,44.77,529.28-42.45
		c154.66-87.19,242.01-381.72,212.76-481.58c-7.79-26.71-19.19-62.31-36.14-101.66c-17.72-22.61-41.37-37.41-72.9-35.32
		c-115.8,7.77-185.11,373.28-185.11,373.28l-54.7-10.52c0,0-58.09,207.69-290.2,253.94
		C1173.82,1059.34,1065.46,964.64,1040.55,945.26z"/>
	
		<linearGradient id="SVGID_41_" gradientUnits="userSpaceOnUse" x1="3866.0767" y1="721.9805" x2="3866.0767" y2="180.6699" gradientTransform="matrix(-0.9766 0.215 0.215 0.9766 5479.0322 -561.406)">
		<stop  offset="0" style="stop-color:#D1BDE5"/>
		<stop  offset="1" style="stop-color:#F4DBEE"/>
	</linearGradient>
	<path class="st58" d="M1873.36,962.69c-59.99,41.88-156.4,10.97-146.55-178.81c10.08-190.47,136.7-361.6,136.7-361.6
		c-158.23-0.86-174.49,328.88-174.49,328.88c1.35,14.23,2.87,27.54,4.73,40l0.17,1.36C1731.77,1057.71,1862.02,970.8,1873.36,962.69
		z"/>
	<path class="st6" d="M2020.71,567.15c-8.84-66.18-43.96-114.33-80.87-117.47c-36.92-3.14-153.77,150.19-154,338.99
		c-0.23,188.8,125.02,142.32,156.82,74.27l18.35-36.92c0,0-103.77,107.29-137.74-11.78c-38.79-135.96,87.17-289.66,140.15-261.07
		c52.98,28.59,44.99,134.55,44.99,134.55S2026.57,611.03,2020.71,567.15z"/>
	<path class="st20" d="M1674.26,422.71c0,0,5.73-55.62,1.93-72.9c0,0-31.92-35.25-75.07-52.94l-44.18,94.28
		C1556.94,391.16,1649.31,411.6,1674.26,422.71z"/>
	<path class="st20" d="M1570.27,741.86c0,0-17.63,45.87-42.53,71.4l-25.57-18.71c0,0,26.01-40.08,38.24-64.73L1570.27,741.86z"/>
	
		<linearGradient id="SVGID_42_" gradientUnits="userSpaceOnUse" x1="4222.0264" y1="82.2651" x2="4517.9756" y2="594.8644" gradientTransform="matrix(-0.9766 0.215 0.215 0.9766 5479.0322 -561.406)">
		<stop  offset="0" style="stop-color:#36388A"/>
		<stop  offset="1" style="stop-color:#000000"/>
	</linearGradient>
	<path class="st59" d="M968.75,858.21c0.77,1.74,1.41,3.51,2.3,5.23c30.62,39.53,139.94,146.49,349.4,125.87
		c257.62-25.35,318.74-236.36,318.74-236.36l49.82-1.79c3.05-31.9,7.22-60.98,12.23-87.45l-0.15-0.09
		c0,0-359.94-449.33-762.93-183.46C915.7,631.67,939.61,785.48,968.75,858.21z"/>
	
		<radialGradient id="SVGID_43_" cx="3785.8774" cy="721.2978" r="86.6748" gradientTransform="matrix(-1.4537 -0.2241 -0.1006 0.6528 6900.1929 796.936)" gradientUnits="userSpaceOnUse">
		<stop  offset="0" style="stop-color:#003CEE"/>
		<stop  offset="0.0562" style="stop-color:#0036D6"/>
		<stop  offset="0.1982" style="stop-color:#00289E"/>
		<stop  offset="0.341" style="stop-color:#001C6D"/>
		<stop  offset="0.4814" style="stop-color:#001246"/>
		<stop  offset="0.6191" style="stop-color:#000A27"/>
		<stop  offset="0.7532" style="stop-color:#000412"/>
		<stop  offset="0.882" style="stop-color:#000104"/>
		<stop  offset="1" style="stop-color:#000000"/>
	</radialGradient>
	<path class="st60" d="M1198.1,399.96c-4.82,31.25,47.69,65.28,117.27,76.01c69.59,10.73,129.9-5.91,134.72-37.16
		c4.82-31.25-47.69-65.28-117.28-76.01C1263.24,352.07,1202.92,368.71,1198.1,399.96z"/>
	
		<radialGradient id="SVGID_44_" cx="2140.0122" cy="-4154.4136" r="86.6734" gradientTransform="matrix(-0.0854 3.1704 0.6603 0.0177 3889.9951 -6078.6953)" gradientUnits="userSpaceOnUse">
		<stop  offset="0" style="stop-color:#003CEE"/>
		<stop  offset="0.0562" style="stop-color:#0036D6"/>
		<stop  offset="0.1982" style="stop-color:#00289E"/>
		<stop  offset="0.341" style="stop-color:#001C6D"/>
		<stop  offset="0.4814" style="stop-color:#001246"/>
		<stop  offset="0.6191" style="stop-color:#000A27"/>
		<stop  offset="0.7532" style="stop-color:#000412"/>
		<stop  offset="0.882" style="stop-color:#000104"/>
		<stop  offset="1" style="stop-color:#000000"/>
	</radialGradient>
	<path class="st61" d="M956.68,907.26c31.61,0.85,60.54-121.49,64.63-273.25c4.09-151.77-18.22-275.49-49.83-276.34
		c-31.61-0.85-60.54,121.49-64.63,273.25C902.76,782.69,925.07,906.41,956.68,907.26z"/>
	<path class="st20" d="M1648.19,199.19c0,0-136.3-72.55-228.53-81.9C1419.66,117.28,1750.18,118.48,1648.19,199.19z"/>
	<polygon class="st20" points="1792.01,546.04 1739.62,524.11 1718.37,581.59 1769.57,598.1 	"/>
</g>
<polygon class="st1" points="1294.92,1435.91 1324.07,1309.11 1309.37,1435.97 1295.59,1493.41 "/>
<g>
	
		<radialGradient id="SVGID_45_" cx="528.5479" cy="1341.8219" r="1663.8063" gradientTransform="matrix(1 0 0 1 33.3862 0)" gradientUnits="userSpaceOnUse">
		<stop  offset="0" style="stop-color:#00D5FF"/>
		<stop  offset="0.1801" style="stop-color:#29DCFF"/>
		<stop  offset="0.5873" style="stop-color:#90EDFF"/>
		<stop  offset="1" style="stop-color:#FFFFFF"/>
	</radialGradient>
	<path class="st62" d="M2788.2,1749.18c-59.12-132.71-223.49-247.98-492.29-135.97c-163.21,68.02-284.59,93.28-373.61,97.23
		c-23.64-44.79-39.18-74.18-39.18-74.18s-12.68-17.89-37.46-67.58c1.58,1.03,3.15,2.02,4.73,3.01c0.15,0.11,0.33,0.26,0.48,0.33
		c34.82,25.18,75.06,33.76,75.06,33.76c0-0.04-0.04-0.04-0.04-0.04c25.4,6.6,51.16,8.28,76.82,3.89
		c45.12-7.77,81.95-25.18,111.2-45.23l1.28-0.55c-0.04-0.11-0.07-0.18-0.11-0.29c47.21-32.73,74.4-72.16,84.19-88.25
		c0.51-0.92,1.03-1.76,1.47-2.46c0.4-0.92,0.84-1.58,1.17-2.13c1.03-1.8,1.54-2.71,1.54-2.71s34.56-17.26,32.88-54.68
		c18.03-5.86,33.72-12.94,47.43-20.78c20.45-11.22,40.86-26.24,55.01-45.92c34.82-42.51,37.64-85.18,37.64-85.18
		c-60.91-37.46-129.49,21.37-129.49,21.37l-6.08-27.78c-21.59,9.68-35.04,25.8-43.36,41.41c-0.51-1.1-0.84-1.76-0.84-1.76
		l-22.17-4.1c0,0-10.08-30.16-40.76-33.57l-0.62-1.32c-0.18,0.07-0.88,0.44-1.98,1.1c-31.96-2.16-100.09,13.52-189.01-19.24
		c-7.62-2.79-15.54-5.94-23.71-9.35l-62.71-29.94c-0.4,0.15-0.77,0.29-1.17,0.44c-9.13-4.54-18.22-9.2-27.19-13.93
		c-15.43-8.28-43.03-24.3-66.78-38.19c-23.75-13.93-43.65-25.77-43.65-25.77c-4.29-2.82-8.14-5.42-11.4-7.73
		c0-0.04,0-0.04-0.04-0.04c-5.42-3.89-9.27-6.96-11.29-9.09c-16.46-17.34-42.59-27.52-42.59-27.52l-0.26,0.04l-11.65,0.48
		c58.49-10.59,114.57-28.59,163.57-56.19c53.51-30.16,98.92-85.14,134.29-148.29c1.54-2.53,2.97-5.13,4.25-7.73
		c42.26-78.03,69.23-167.27,77.3-237.27c2.46-19.9,3.81-41.23,1.91-58.2c-0.84-11.32-2.46-21.48-5.02-30.13
		c-1.43-4.98-3.08-10.34-4.8-15.87c0-0.04,0-0.11-0.04-0.15c-0.95-3.12-1.98-6.34-3.01-9.64c-0.4-1.17-0.77-2.35-1.17-3.56
		c-0.95-2.97-1.94-6.01-3.01-9.09c-0.26-0.84-0.55-1.65-0.84-2.49c-6.27-18.62-13.89-39.14-23.24-60.88
		c-45.92-107.13-132.34-241.6-296.03-298.44c-0.44-0.15-0.88-0.29-1.32-0.44c-7.18-3.01-14.51-5.9-22.06-8.61
		c-123.55-44.09-295.92-46.44-429.8-21.33c-41.82,7.92-79.64,18.51-111.34,31.26c-21.48,8.58-40.13,18.22-54.9,28.84l-6.12,4.62
		c-4.29,3.15-8.03,6.56-11.43,10.04C860.98,369.62,895.61,739.87,945.31,867.34c0.92,1.83,1.43,3.59,2.35,5.42
		c11.11,23.97,33.46,51.86,64.18,79.24c0,0,1.72,1.8,5.31,4.58c57.39,49.84,141.54,97.89,233.39,120.8
		c17.04,4.29,35.11,8.17,53.91,11.58c-13.01,3.12-27.12,7.18-41.09,12.53c-49.55,18.98-212.24,28.29-291.92-2.79
		c-79.68-31.08-105.63-62.38-125.78-62.6c-11.84-0.07-23.49,10.81-31.15,19.94c-12.24-27.71-31.3-58.64-49.11-74.8l-12.46,18.07
		c0,0-19.39-29.1-98.19-35.55c0,0-39.62,4.73-10.7,94.85c16.75,52.23,52.67,89.76,83.78,113.91c15.94,12.46,30.57,21.33,40.79,26.94
		c-0.66,21.59,6.38,38.63,28.26,42.59v0.04c9.49,43.14,54.28,95.4,111.23,139.34l0.73,0.66c0.04,0,0.04-0.04,0.07-0.04
		c24.52,18.84,51.27,36.17,78.43,50.54c0,0,11.51,6.52,27.41,13.93c15.87,7.4,36.17,15.65,53.66,19.13h0.04
		c19.42,5.28,38.04,8.21,55.09,8.14c5.2,0.04,10.45-0.4,15.54-0.95c4.43-0.55,8.8-1.28,13.16-2.24c0.04,0,0.07-0.04,0.11-0.04
		c56.44-12.39,105.04-57.83,137.22-96.1c0.62,12.86,1.54,26.1,2.9,39.84c0.77,7.07,1.54,14.22,2.46,21.62
		c0,0-49.92,158.07-46.33,336.23v0.37l-5.17,94.48c-1.03,5.02-2.09,10.45-3.22,16.24c-19.24,99.07-85.43,295.04-74.4,377.83
		c7.51,56.59,60.55,124.46,110.76,177.5c-27.71,10.92-37.86,24.23-38.04,24.45v0.04c0.29,0.37,11.07,13.41,31.41,29.32
		c20.3,15.91,50.14,34.67,88.51,46.47c0,0-73.67,25.36-73.74,108.7l210.26-117.24l-10.85-25.62l8.21-64.83c0,0-0.07,0-0.15,0.04
		c0.04-0.04,0.07-0.07,0.07-0.07c-3.08-0.73-5.97-1.36-8.98-2.05c4.76-41.34,12.17-97.2,22.76-155.47l15.76-77.08
		c4.43-19.17,9.24-38.04,14.4-56.19h0.44v-1.43c6.16-21.48,12.9-41.82,20.19-60.47l4.47-11c0.77-1.8,1.5-3.67,2.27-5.42l75.35,0.81
		c0,0,0-0.04,0-0.07l6.01,0.07v0.04c0,0,37.68,43.39,80.67,93.61c-0.4,4.8-0.55,7.55-0.55,7.7l2.9,0.11c0-0.11,0.07-1.76,0.29-4.73
		c27.12,31.67,56.08,65.71,78.91,93.09c0.07,0.07,17.01,22.87,37.16,45.74c5.17,6.3,11.58,13.12,18.95,20.23
		c5.13,5.09,10.19,9.75,14.99,13.67c26.9,23.42,61.83,48.56,96.21,69.34c-3.26,4.58-6.52,9.35-9.71,14.37c0,0,5.35,3.12,15.03,6.3
		l111.38,47.35l5.97,27.05c0,0,0.18,0.29,0.51,0.73c6.85,10.56,86.42,129.23,180.06,105.88h0.18c0,0-6.63-97.75-109.69-158.66
		l1.17-140.88c0,0,0,0.04-0.04,0.04c0-0.04,0-0.07,0-0.07s-3.52-0.48-9.68-0.66c-0.15-6.74-0.29-13.56-0.48-20.38v-0.04
		c-0.55-23.16-1.43-46.33-2.71-66.89c0-2.49-0.26-46.62-10.48-70.48c-13.16-33.72-58.64-124.83-108.16-221.41
		c23.02,5.42,46.91,13.34,71.39,24.52c48.67,22.25,95.84,54.87,141.47,86.42c102.84,71.14,208.69,144.29,345.06,114.28
		c24.45-5.35,49.84-14.07,76.42-26.65C2818.07,2061.88,2846,1878.92,2788.2,1749.18z M2657.32,2099.82
		c-156.75,74.36-268.54-2.93-386.92-84.81c-46.87-32.4-95.33-65.93-146.78-89.43c-37.02-16.9-72.75-27.12-106.21-32.66
		c-14.7-28.48-29.43-56.84-43.47-83.78c0.07-0.04,0.15-0.07,0.18-0.11l-0.84-1.17c-11.8-22.61-23.09-44.2-33.42-63.92
		c91.96-6.34,212.61-33.43,369.4-98.74c245.48-102.29,392.01-6.08,447.28,118.05C2807.74,1878.19,2784.35,2039.53,2657.32,2099.82z"
		/>
</g>
<radialGradient id="SVGID_46_" cx="762.8405" cy="1245.8571" r="2053.6956" gradientUnits="userSpaceOnUse">
	<stop  offset="0.3462" style="stop-color:#FFFFFF"/>
	<stop  offset="0.4191" style="stop-color:#FAFAFD"/>
	<stop  offset="0.5002" style="stop-color:#EDEDF9"/>
	<stop  offset="0.5852" style="stop-color:#D7D7F1"/>
	<stop  offset="0.6729" style="stop-color:#B8B8E6"/>
	<stop  offset="0.7628" style="stop-color:#9090D7"/>
	<stop  offset="0.8544" style="stop-color:#5E5EC6"/>
	<stop  offset="0.9457" style="stop-color:#2626B1"/>
	<stop  offset="1" style="stop-color:#0000A4"/>
</radialGradient>
<path class="st63" d="M2788.2,1749.18c-59.12-132.71-223.49-247.98-492.29-135.97c-163.21,68.02-284.59,93.28-373.61,97.23
	c-23.64-44.79-39.18-74.18-39.18-74.18s-12.68-17.89-37.46-67.58c1.58,1.03,3.15,2.02,4.73,3.01c0.15,0.11,0.33,0.26,0.48,0.33
	c34.82,25.18,75.06,33.76,75.06,33.76c0-0.04-0.04-0.04-0.04-0.04c25.4,6.6,51.16,8.28,76.82,3.89
	c45.12-7.77,81.95-25.18,111.2-45.23l1.28-0.55c-0.04-0.11-0.07-0.18-0.11-0.29c47.21-32.73,74.4-72.16,84.19-88.25
	c0.51-0.92,1.03-1.76,1.47-2.46c0.4-0.92,0.84-1.58,1.17-2.13c1.03-1.8,1.54-2.71,1.54-2.71s34.56-17.26,32.88-54.68
	c18.03-5.86,33.72-12.94,47.43-20.78c20.45-11.22,40.86-26.24,55.01-45.92c34.82-42.51,37.64-85.18,37.64-85.18
	c-60.91-37.46-129.49,21.37-129.49,21.37l-6.08-27.78c-21.59,9.68-35.04,25.8-43.36,41.41c-0.51-1.1-0.84-1.76-0.84-1.76l-22.17-4.1
	c0,0-10.08-30.16-40.76-33.57l-0.62-1.32c-0.18,0.07-0.88,0.44-1.98,1.1c-31.96-2.16-100.09,13.52-189.01-19.24
	c-7.62-2.79-15.54-5.94-23.71-9.35l-62.71-29.94c-0.4,0.15-0.77,0.29-1.17,0.44c-9.13-4.54-18.22-9.2-27.19-13.93
	c-15.43-8.28-43.03-24.3-66.78-38.19c-23.75-13.93-43.65-25.77-43.65-25.77c-4.29-2.82-8.14-5.42-11.4-7.73c0-0.04,0-0.04-0.04-0.04
	c-5.42-3.89-9.27-6.96-11.29-9.09c-16.46-17.34-42.59-27.52-42.59-27.52l-0.26,0.04l-11.65,0.48
	c58.49-10.59,114.57-28.59,163.57-56.19c53.51-30.16,98.92-85.14,134.29-148.29c1.54-2.53,2.97-5.13,4.25-7.73
	c42.26-78.03,69.23-167.27,77.3-237.27c2.46-19.9,3.81-41.23,1.91-58.2c-0.84-11.32-2.46-21.48-5.02-30.13
	c-1.43-4.98-3.08-10.34-4.8-15.87c0-0.04,0-0.11-0.04-0.15c-0.95-3.12-1.98-6.34-3.01-9.64c-0.4-1.17-0.77-2.35-1.17-3.56
	c-0.95-2.97-1.94-6.01-3.01-9.09c-0.26-0.84-0.55-1.65-0.84-2.49c-6.27-18.62-13.89-39.14-23.24-60.88
	c-45.92-107.13-132.34-241.6-296.03-298.44c-0.44-0.15-0.88-0.29-1.32-0.44c-7.18-3.01-14.51-5.9-22.06-8.61
	c-123.55-44.09-295.92-46.44-429.8-21.33c-41.82,7.92-79.64,18.51-111.34,31.26c-21.48,8.58-40.13,18.22-54.9,28.84l-6.12,4.62
	c-4.29,3.15-8.03,6.56-11.43,10.04C860.98,369.62,895.61,739.87,945.31,867.34c0.92,1.83,1.43,3.59,2.35,5.42
	c11.11,23.97,33.46,51.86,64.18,79.24c0,0,1.72,1.8,5.31,4.58c57.39,49.84,141.54,97.89,233.39,120.8
	c17.04,4.29,35.11,8.17,53.91,11.58c-13.01,3.12-27.12,7.18-41.09,12.53c-49.55,18.98-212.24,28.29-291.92-2.79
	c-79.68-31.08-105.63-62.38-125.78-62.6c-11.84-0.07-23.49,10.81-31.15,19.94c-12.24-27.71-31.3-58.64-49.11-74.8l-12.46,18.07
	c0,0-19.39-29.1-98.19-35.55c0,0-39.62,4.73-10.7,94.85c16.75,52.23,52.67,89.76,83.78,113.91c15.94,12.46,30.57,21.33,40.79,26.94
	c-0.66,21.59,6.38,38.63,28.26,42.59v0.04c9.49,43.14,54.28,95.4,111.23,139.34l0.73,0.66c0.04,0,0.04-0.04,0.07-0.04
	c24.52,18.84,51.27,36.17,78.43,50.54c0,0,11.51,6.52,27.41,13.93c15.87,7.4,36.17,15.65,53.66,19.13h0.04
	c19.42,5.28,38.04,8.21,55.09,8.14c5.2,0.04,10.45-0.4,15.54-0.95c4.43-0.55,8.8-1.28,13.16-2.24c0.04,0,0.07-0.04,0.11-0.04
	c56.44-12.39,105.04-57.83,137.22-96.1c0.62,12.86,1.54,26.1,2.9,39.84c0.77,7.07,1.54,14.22,2.46,21.62
	c0,0-49.92,158.07-46.33,336.23v0.37l-5.17,94.48c-1.03,5.02-2.09,10.45-3.22,16.24c-19.24,99.07-85.43,295.04-74.4,377.83
	c7.51,56.59,60.55,124.46,110.76,177.5c-27.71,10.92-37.86,24.23-38.04,24.45v0.04c0.29,0.37,11.07,13.41,31.41,29.32
	c20.3,15.91,50.14,34.67,88.51,46.47c0,0-73.67,25.36-73.74,108.7l210.26-117.24l-10.85-25.62l8.21-64.83c0,0-0.07,0-0.15,0.04
	c0.04-0.04,0.07-0.07,0.07-0.07c-3.08-0.73-5.97-1.36-8.98-2.05c4.76-41.34,12.17-97.2,22.76-155.47l15.76-77.08
	c4.43-19.17,9.24-38.04,14.4-56.19h0.44v-1.43c6.16-21.48,12.9-41.82,20.19-60.47l4.47-11c0.77-1.8,1.5-3.67,2.27-5.42l75.35,0.81
	c0,0,0-0.04,0-0.07l6.01,0.07v0.04c0,0,37.68,43.39,80.67,93.61c-0.4,4.8-0.55,7.55-0.55,7.7l2.9,0.11c0-0.11,0.07-1.76,0.29-4.73
	c27.12,31.67,56.08,65.71,78.91,93.09c0.07,0.07,17.01,22.87,37.16,45.74c5.17,6.3,11.58,13.12,18.95,20.23
	c5.13,5.09,10.19,9.75,14.99,13.67c26.9,23.42,61.83,48.56,96.21,69.34c-3.26,4.58-6.52,9.35-9.71,14.37c0,0,5.35,3.12,15.03,6.3
	l111.38,47.35l5.97,27.05c0,0,0.18,0.29,0.51,0.73c6.85,10.56,86.42,129.23,180.06,105.88h0.18c0,0-6.63-97.75-109.69-158.66
	l1.17-140.88c0,0,0,0.04-0.04,0.04c0-0.04,0-0.07,0-0.07s-3.52-0.48-9.68-0.66c-0.15-6.74-0.29-13.56-0.48-20.38v-0.04
	c-0.55-23.16-1.43-46.33-2.71-66.89c0-2.49-0.26-46.62-10.48-70.48c-13.16-33.72-58.64-124.83-108.16-221.41
	c23.02,5.42,46.91,13.34,71.39,24.52c48.67,22.25,95.84,54.87,141.47,86.42c102.84,71.14,208.69,144.29,345.06,114.28
	c24.45-5.35,49.84-14.07,76.42-26.65C2818.07,2061.88,2846,1878.92,2788.2,1749.18z M2657.32,2099.82
	c-156.75,74.36-268.54-2.93-386.92-84.81c-46.87-32.4-95.33-65.93-146.78-89.43c-37.02-16.9-72.75-27.12-106.21-32.66
	c-14.7-28.48-29.43-56.84-43.47-83.78c0.07-0.04,0.15-0.07,0.18-0.11l-0.84-1.17c-11.8-22.61-23.09-44.2-33.42-63.92
	c91.96-6.34,212.61-33.43,369.4-98.74c245.48-102.29,392.01-6.08,447.28,118.05C2807.74,1878.19,2784.35,2039.53,2657.32,2099.82z"
	/>
<g>
	<path class="st64" d="M359.83,525.59c75.54,54.88,85.29,159.96,30.42,235.5c-54.88,75.54-153.61,92.92-229.14,38.05
		C85.57,744.26,68.82,638.54,123.69,563C178.57,487.47,284.29,470.72,359.83,525.59z"/>
	
		<radialGradient id="SVGID_47_" cx="1316.4075" cy="45.4599" r="255.9996" gradientTransform="matrix(0.5877 -0.809 0.809 0.5877 -660.7393 1651.2205)" gradientUnits="userSpaceOnUse">
		<stop  offset="5.586590e-03" style="stop-color:#0098E2"/>
		<stop  offset="0.3552" style="stop-color:#0297E3"/>
		<stop  offset="0.5297" style="stop-color:#0A93E5"/>
		<stop  offset="0.6654" style="stop-color:#178CE9"/>
		<stop  offset="0.7811" style="stop-color:#2A81EE"/>
		<stop  offset="0.883" style="stop-color:#4274F5"/>
		<stop  offset="0.9756" style="stop-color:#5F64FE"/>
		<stop  offset="0.9832" style="stop-color:#6263FF"/>
	</radialGradient>
	<path class="st65" d="M352.25,535.64c69.91,50.79,78.94,148.05,28.15,217.97c-50.79,69.91-142.17,86.01-212.08,35.22
		c-69.91-50.79-85.42-148.64-34.63-218.55C184.49,500.36,282.34,484.85,352.25,535.64z"/>
	
		<linearGradient id="SVGID_48_" gradientUnits="userSpaceOnUse" x1="312.8723" y1="390.9604" x2="474.7875" y2="423.8018" gradientTransform="matrix(0.98 -0.1988 0.1988 0.98 -266.581 282.6823)">
		<stop  offset="0.0168" style="stop-color:#B3FFE8"/>
		<stop  offset="0.2139" style="stop-color:#83BBAA"/>
		<stop  offset="0.4253" style="stop-color:#55796E"/>
		<stop  offset="0.6174" style="stop-color:#30453F"/>
		<stop  offset="0.7832" style="stop-color:#161F1D"/>
		<stop  offset="0.9163" style="stop-color:#060808"/>
		<stop  offset="1" style="stop-color:#000000"/>
	</linearGradient>
	<path class="st66" d="M138.23,688.11c46.18,25.15,58.84-48.54,79.23-84.05c20.39-35.51,65.51-88.15,65.51-88.15
		s-105.26-21.22-155.14,78.17C100.19,649.11,138.23,688.11,138.23,688.11z"/>
	<path class="st67" d="M136.6,618.22c0,0,3.97-0.02,30.51-27.57c26.54-27.56,27.17-44.65,18.88-48.99s-33.1,6.65-49.42,31.23
		C120.23,597.48,128.55,616.71,136.6,618.22z"/>
</g>
<path class="st68" d="M2770.39,2956.09h-4397.61c-80.96,0-146.59-65.63-146.59-146.59V464.11c0-80.96,65.63-146.59,146.59-146.59
	H691.4v-558.06h2563.87v1849.52h-338.29v1200.51C2916.98,2890.46,2851.35,2956.09,2770.39,2956.09z"/>
</svg>
