<?xml version="1.0" encoding="utf-8"?>
<!-- Generator: Adobe Illustrator 24.3.0, SVG Export Plug-In . SVG Version: 6.00 Build 0)  -->
<svg version="1.0" id="Layer_1" xmlns="http://www.w3.org/2000/svg" xmlns:xlink="http://www.w3.org/1999/xlink" x="0px" y="0px"
	 viewBox="0 0 3874.54 1334.54" style="enable-background:new 0 0 3874.54 1334.54;" xml:space="preserve">
<style type="text/css">
	.st0{fill:#FFFFFF;}
</style>
<g>
	
		<rect x="493.01" y="336.93" transform="matrix(-1 -1.224647e-16 1.224647e-16 -1 1310.7539 998.601)" class="st0" width="324.74" height="324.74"/>
	
		<rect x="168.27" y="661.67" transform="matrix(-1 -1.224647e-16 1.224647e-16 -1 661.2749 1648.0801)" class="st0" width="324.74" height="324.74"/>
	<g>
		<path class="st0" d="M1722.73,502.42c0,93.25-49.43,132.42-107.24,149.21v3.73c66.21,14.92,122.16,57.82,122.16,160.4
			s-83,170.66-186.51,170.66h-432.7V344.82h427.11C1642.54,344.82,1722.73,410.1,1722.73,502.42z M1324.54,594.74h141.75
			c27.04,0,47.56-22.38,47.56-50.36v-9.33c0-27.04-21.45-49.42-47.56-49.42h-141.75V594.74z M1324.54,837.21h156.67
			c27.04,0,47.56-21.45,47.56-50.36v-9.33c0-27.98-20.52-50.36-47.56-50.36h-156.67V837.21z"/>
		<path class="st0" d="M2386.71,740.22c0,172.52-110.04,257.38-277.9,257.38c-167.86,0-276.97-84.86-276.97-257.38
			c0-172.52,109.11-257.38,276.97-257.38C2276.67,482.84,2386.71,567.7,2386.71,740.22z M2017.43,714.11v53.16
			c0,65.28,26.11,104.45,91.39,104.45c65.28,0,92.32-39.17,92.32-104.45v-53.16c0-65.28-27.04-105.38-92.32-105.38
			C2043.54,608.73,2017.43,648.83,2017.43,714.11z"/>
		<path class="st0" d="M3010.59,667.48v318.93h-185.58V689.86c0-41.03-21.45-69.94-62.48-69.94c-46.63,0-77.4,35.44-77.4,77.4
			v289.09h-185.58V494.03h152.01l12.12,74.6c38.24-52.22,105.38-85.79,175.32-85.79C2955.57,482.84,3010.59,550.91,3010.59,667.48z"
			/>
		<path class="st0" d="M3642.85,643.24v192.1c0,20.52,9.33,36.37,29.84,36.37h33.57v107.24c0,0-34.5,18.65-96.99,18.65
			c-74.6,0-120.3-24.25-137.08-61.55c-41.03,32.64-96.05,61.55-181.85,61.55c-102.58,0-173.45-35.44-173.45-138.02
			c0-147.34,124.96-175.32,340.38-175.32v-24.25c0-40.1-31.71-58.75-71.81-58.75c-32.64,0-70.87,10.26-70.87,42.9v3.73h-182.78
			c-0.93-4.66-0.93-8.39-0.93-13.06c0-90.46,88.59-152.01,257.38-152.01C3523.49,482.84,3642.85,522.01,3642.85,643.24z
			 M3302.47,835.34c0,38.23,31.71,46.63,63.41,46.63c47.56,0,91.39-27.98,91.39-68.08v-41.96
			C3347.24,771.93,3302.47,798.97,3302.47,835.34z"/>
	</g>
</g>
</svg>
